<?xml version="1.0" encoding="utf-8"?>
<svg xmlns="http://www.w3.org/2000/svg" width="100" height="100" viewBox="0 0 100 100" fill="none">
<path fill-rule="evenodd" clip-rule="evenodd" d="M31.0214 24.4372C31.3852 26.1243 30.3125 27.7869 28.6254 28.1507L8.68927 32.4494C8.68853 32.4496 8.69001 32.4493 8.68927 32.4494C7.02194 32.8134 5.96129 34.4587 6.32108 36.1271C6.32114 36.1274 6.32102 36.1268 6.32108 36.1271L18.1619 90.7858C18.162 90.7863 18.1618 90.7852 18.1619 90.7858C18.5257 92.4537 20.1715 93.5141 21.8404 93.1538L50.909 86.8543C52.5957 86.4887 54.2594 87.5598 54.6249 89.2465C54.9905 90.9332 53.9194 92.5969 52.2327 92.9625L23.1619 99.2625C18.1221 100.351 13.1507 97.1524 12.0547 92.1143L0.212504 37.4492C-0.875739 32.4094 2.3226 27.4383 7.36072 26.3423L27.308 22.0411C28.9951 21.6773 30.6577 22.7501 31.0214 24.4372Z" fill="#FD5000"/>
<path fill-rule="evenodd" clip-rule="evenodd" d="M13.8961 40.5558C14.6036 41.5102 15.8269 42.0169 17.0642 41.7513C18.7516 41.3891 19.8259 39.7275 19.4637 38.0401C19.2027 36.8238 18.4685 35.7614 17.4231 35.0872C16.3777 34.4129 15.107 34.1823 13.8913 34.4462C12.2047 34.8123 11.1342 36.4763 11.5003 38.1629C11.7687 39.3996 12.7349 40.305 13.8961 40.5558Z" fill="#FD5000"/>
<path fill-rule="evenodd" clip-rule="evenodd" d="M16.4182 40.009C17.3678 39.3026 17.8729 38.0847 17.6111 36.8512C17.2528 35.1629 15.5937 34.0847 13.9054 34.443C12.6784 34.7034 11.6072 35.4451 10.9316 36.502C10.256 37.5588 10.0327 38.8425 10.3115 40.0655C10.6952 41.7482 12.3704 42.8012 14.0531 42.4175C15.2825 42.1372 16.1758 41.1674 16.4182 40.009Z" fill="#FD5000"/>
<path fill-rule="evenodd" clip-rule="evenodd" d="M15.8706 37.5109C15.1631 36.5565 13.9397 36.0498 12.7025 36.3154C11.015 36.6776 9.94072 38.3391 10.3029 40.0266C10.564 41.2429 11.2982 42.3053 12.3436 42.9795C13.389 43.6537 14.6597 43.8843 15.8753 43.6205C17.562 43.2544 18.6325 41.5904 18.2664 39.9038C17.998 38.6671 17.0318 37.7617 15.8706 37.5109Z" fill="#FD5000"/>
<path fill-rule="evenodd" clip-rule="evenodd" d="M15.7457 35.6545C17.4323 35.2885 19.0963 36.3591 19.4623 38.0458C19.7259 39.2608 19.496 40.5308 18.8232 41.5763C18.1504 42.6219 17.0898 43.3573 15.8748 43.6208C14.1881 43.9865 12.5243 42.9157 12.1585 41.229C11.8899 39.9905 12.3959 38.7643 13.3516 38.0553C13.6009 36.8918 14.5072 35.9232 15.7457 35.6545Z" fill="#FD5000"/>
<path fill-rule="evenodd" clip-rule="evenodd" d="M45.6922 22.7161C47.2647 17.783 52.5385 15.0587 57.4716 16.6311L92.9305 27.9338C97.8636 29.5063 100.588 34.7801 99.0155 39.7132L82.05 92.9372C80.4775 97.8703 75.2037 100.595 70.2706 99.0222L34.8118 87.7195C29.8787 86.147 27.1543 80.8732 28.7268 75.9401L45.6922 22.7161ZM55.5735 22.5859C53.9291 22.0618 52.1712 22.9699 51.647 24.6143L34.6816 77.8382C34.1574 79.4826 35.0655 81.2405 36.7099 81.7647L72.1687 93.0674C73.8131 93.5916 75.571 92.6835 76.0952 91.0391L93.0607 37.8151C93.5848 36.1707 92.6767 34.4128 91.0323 33.8886L55.5735 22.5859Z" fill="#FD5000"/>
<path fill-rule="evenodd" clip-rule="evenodd" d="M53.3372 52.4495L66 43.4369C66 43.4369 67.0898 42.5614 68.75 42.9994C70.4102 43.4374 70.75 44.9369 70.75 44.9369L75.8639 59.6301C76.3205 60.9418 75.8565 62.3975 74.7251 63.2031L62.0667 72.2156C61.2654 72.7862 60.2421 72.9461 59.3049 72.6472C58.3677 72.3484 57.6258 71.6256 57.3027 70.6965L52.1985 56.0215C51.7424 54.7101 52.2062 53.255 53.3372 52.4495ZM66.2229 50.9453L58.8713 56.1812L61.8367 64.7071L69.1907 59.4712L66.2229 50.9453Z" fill="#FD5000"/>
<path fill-rule="evenodd" clip-rule="evenodd" d="M55.1238 28.9347C55.6501 27.291 57.4091 26.3851 59.0529 26.9114C61.5121 27.6987 62.8728 30.3254 62.0974 32.7884C61.5792 34.4347 59.8245 35.3491 58.1783 34.8308C56.9668 34.4494 56.1516 33.3984 56.0121 32.2138C55.1249 31.4165 54.7365 30.1444 55.1238 28.9347Z" fill="#FD5000"/>
<path fill-rule="evenodd" clip-rule="evenodd" d="M58.4595 32.9925C59.642 32.8549 60.6926 32.0442 61.0775 30.8362C61.6015 29.1918 60.6931 27.4339 59.0487 26.91C56.5843 26.1248 53.9496 27.4841 53.1612 29.9475C52.6351 31.5912 53.5412 33.3502 55.185 33.8763C56.3924 34.2627 57.6621 33.8764 58.4595 32.9925Z" fill="#FD5000"/>
<path fill-rule="evenodd" clip-rule="evenodd" d="M59.242 30.5363C59.1032 29.3577 58.2956 28.3103 57.0918 27.9243C55.4483 27.3972 53.6888 28.3023 53.1618 29.9457C52.781 31.133 52.8894 32.4231 53.4629 33.5301C54.0365 34.6372 55.0277 35.4699 56.2172 35.8437C57.8637 36.3612 59.6179 35.446 60.1354 33.7995C60.5144 32.5934 60.1247 31.3296 59.242 30.5363Z" fill="#FD5000"/>
<path fill-rule="evenodd" clip-rule="evenodd" d="M60.0692 28.8737C61.7129 29.3997 62.619 31.1587 62.093 32.8025C61.3046 35.2659 58.6699 36.6252 56.2055 35.84C54.561 35.316 53.6527 33.5582 54.1766 31.9138C54.5615 30.7058 55.6122 29.8951 56.7946 29.7574C57.5921 28.8736 58.8617 28.4872 60.0692 28.8737Z" fill="#FD5000"/>
<path fill-rule="evenodd" clip-rule="evenodd" d="M67.6154 81.8349C68.1414 80.1912 69.9004 79.2851 71.5442 79.8112C74.0076 80.5995 75.3669 83.2342 74.5817 85.6987C74.0577 87.3431 72.2999 88.2514 70.6555 87.7275C69.4475 87.3426 68.6368 86.2919 68.4991 85.1095C67.6153 84.312 67.2289 83.0424 67.6154 81.8349Z" fill="#FD5000"/>
<path fill-rule="evenodd" clip-rule="evenodd" d="M70.9554 85.8919C72.14 85.7525 73.1911 84.9373 73.5725 83.7258C74.0907 82.0795 73.1763 80.3249 71.53 79.8066C69.067 79.0312 66.4403 80.3919 65.653 82.8512C65.1267 84.4949 66.0326 86.254 67.6763 86.7803C68.886 87.1675 70.1581 86.7792 70.9554 85.8919Z" fill="#FD5000"/>
<path fill-rule="evenodd" clip-rule="evenodd" d="M71.7342 83.4445C71.5966 82.2621 70.7858 81.2114 69.5779 80.8265C67.9334 80.3026 66.1756 81.2109 65.6517 82.8554C64.8664 85.3198 66.2257 87.9545 68.6892 88.7429C70.3329 89.2689 72.0919 88.3628 72.618 86.7191C73.0044 85.5116 72.618 84.242 71.7342 83.4445Z" fill="#FD5000"/>
<path fill-rule="evenodd" clip-rule="evenodd" d="M72.5491 81.7714C74.1942 82.2933 75.1047 84.05 74.5829 85.6951C74.2068 86.8804 73.3752 87.8678 72.271 88.4398C71.1668 89.0118 69.8805 89.1216 68.6954 88.7451C67.0505 88.2224 66.1407 86.4653 66.6634 84.8205C67.0471 83.6128 68.0963 82.8014 69.2779 82.6622C70.0732 81.7772 71.3412 81.3882 72.5491 81.7714Z" fill="#FD5000"/>
<path fill-rule="evenodd" clip-rule="evenodd" d="M34.6026 0.00428752H71.45L71.5524 0.0059667C76.5833 0.170959 80.6308 4.19687 80.8227 9.22682C80.8242 9.26651 80.825 9.30623 80.825 9.34595V26.3585C80.825 28.0843 79.4259 29.4835 77.7 29.4835C75.9741 29.4835 74.575 28.0843 74.575 26.3585V9.41519C74.4843 7.70041 73.1066 6.33229 71.3905 6.25429H34.5407C32.7359 6.22966 31.2287 7.61324 31.0917 9.40463V65.256C31.0824 66.8269 32.2527 68.1551 33.8124 68.3435C35.5258 68.5506 36.747 70.1074 36.5399 71.8208C36.3329 73.5342 34.7761 74.7554 33.0626 74.5484C28.3534 73.9794 24.8188 69.9717 24.8417 65.2293C24.8417 65.226 24.8417 65.2226 24.8417 65.2192L27.9667 65.2376H24.8417V65.2293V9.30429C24.8417 9.24659 24.8433 9.18891 24.8465 9.1313C25.1327 3.96739 29.4339 -0.0539887 34.6026 0.00428752Z" fill="#FD5000"/>
<path fill-rule="evenodd" clip-rule="evenodd" d="M36.0417 12.4585C36.0509 10.7326 37.4574 9.34097 39.1833 9.35014C40.4276 9.35676 41.6181 9.85826 42.492 10.744C43.366 11.6297 43.8516 12.8268 43.8416 14.071C43.8277 15.7969 42.4174 17.1847 40.6915 17.1708C39.4263 17.1607 38.3427 16.4 37.8599 15.3146C36.7811 14.8174 36.035 13.7238 36.0417 12.4585Z" fill="#FD5000"/>
<path fill-rule="evenodd" clip-rule="evenodd" d="M40.4511 15.3248C41.5391 14.8336 42.295 13.7379 42.2917 12.4669C42.2871 10.741 40.8843 9.34556 39.1584 9.35011C36.5891 9.35688 34.504 11.4308 34.4834 14.0001C34.4696 15.7259 35.8575 17.1362 37.5834 17.15C38.8543 17.1602 39.9541 16.4101 40.4511 15.3248Z" fill="#FD5000"/>
<path fill-rule="evenodd" clip-rule="evenodd" d="M40.4705 12.759C39.9859 11.6666 38.8932 10.9034 37.621 10.8999C35.8951 10.8952 34.4922 12.2906 34.4875 14.0164C34.4805 16.5954 36.5547 18.6974 39.1335 18.7247C40.8593 18.743 42.2732 17.3588 42.2915 15.633C42.305 14.3608 41.5563 13.2581 40.4705 12.759Z" fill="#FD5000"/>
<path fill-rule="evenodd" clip-rule="evenodd" d="M40.75 10.9209C42.4758 10.9301 43.8675 12.3367 43.8583 14.0625C43.8517 15.3057 43.3515 16.4954 42.4677 17.3698C41.5839 18.2442 40.389 18.7317 39.1458 18.725C37.4199 18.7158 36.0283 17.3092 36.0376 15.5834C36.0443 14.316 36.8046 13.229 37.8914 12.7444C38.3875 11.6628 39.4826 10.9142 40.75 10.9209Z" fill="#FD5000"/>
</svg>