<?xml version="1.0" encoding="utf-8"?>
<svg xmlns="http://www.w3.org/2000/svg" fill="none" height="100" viewBox="0 0 100 100" width="100">
<path clip-rule="evenodd" d="M33.3505 22.7154C34.9229 17.7823 40.1967 15.0579 45.1299 16.6304L80.5887 27.9331C85.5218 29.5056 88.2462 34.7794 86.6737 39.7125L69.7082 92.9365C68.1358 97.8696 62.862 100.594 57.9288 99.0215L22.47 87.7188C17.5369 86.1463 14.8125 80.8725 16.385 75.9394L33.3505 22.7154ZM43.2317 22.5852C41.5874 22.061 39.8294 22.9692 39.3053 24.6135L22.3398 77.8375C21.8156 79.4819 22.7238 81.2398 24.3681 81.764L59.827 93.0667C61.4713 93.5908 63.2293 92.6827 63.7534 91.0384L80.7189 37.8144C81.2431 36.17 80.3349 34.4121 78.6906 33.8879L43.2317 22.5852Z" fill="#FD5000" fill-rule="evenodd"/>
<path clip-rule="evenodd" d="M38.8124 52.4495L51.4752 43.4369C51.4752 43.4369 52.565 42.5614 54.2252 42.9994C55.8853 43.4374 56.2252 44.9369 56.2252 44.9369L61.339 59.6301C61.7957 60.9418 61.3317 62.3975 60.2002 63.2031L47.5419 72.2156C46.7405 72.7862 45.7173 72.9461 44.78 72.6472C43.8428 72.3484 43.101 71.6256 42.7778 70.6965L37.6737 56.0215C37.2175 54.7101 37.6814 53.255 38.8124 52.4495ZM51.698 50.9453L44.3465 56.1812L47.3119 64.7071L54.6659 59.4712L51.698 50.9453Z" fill="#FD5000" fill-rule="evenodd"/>
<path clip-rule="evenodd" d="M42.7819 28.9354C43.3082 27.2917 45.0673 26.3859 46.711 26.9121C49.1703 27.6995 50.531 30.3261 49.7556 32.7892C49.2373 34.4354 47.4827 35.3498 45.8364 34.8316C44.6249 34.4502 43.8097 33.3991 43.6703 32.2145C42.783 31.4172 42.3947 30.1451 42.7819 28.9354Z" fill="#FD5000" fill-rule="evenodd"/>
<path clip-rule="evenodd" d="M46.1179 32.9925C47.3003 32.8549 48.351 32.0442 48.7359 30.8362C49.2598 29.1918 48.3515 27.4339 46.7071 26.91C44.2426 26.1248 41.6079 27.4841 40.8196 29.9475C40.2935 31.5912 41.1996 33.3502 42.8433 33.8763C44.0508 34.2627 45.3204 33.8764 46.1179 32.9925Z" fill="#FD5000" fill-rule="evenodd"/>
<path clip-rule="evenodd" d="M46.9003 30.5361C46.7615 29.3574 45.9539 28.3101 44.7501 27.924C43.1066 27.397 41.3471 28.302 40.8201 29.9455C40.4393 31.1328 40.5477 32.4228 41.1213 33.5299C41.6948 34.637 42.6861 35.4697 43.8755 35.8435C45.522 36.361 47.2762 35.4457 47.7937 33.7992C48.1728 32.5932 47.7831 31.3293 46.9003 30.5361Z" fill="#FD5000" fill-rule="evenodd"/>
<path clip-rule="evenodd" d="M47.7275 28.8742C49.3713 29.4002 50.2773 31.1592 49.7513 32.803C48.9629 35.2664 46.3282 36.6257 43.8638 35.8405C42.2193 35.3165 41.311 33.5587 41.835 31.9142C42.2199 30.7063 43.2705 29.8955 44.453 29.7579C45.2504 28.8741 46.52 28.4877 47.7275 28.8742Z" fill="#FD5000" fill-rule="evenodd"/>
<path clip-rule="evenodd" d="M55.2738 81.8349C55.7999 80.1912 57.5589 79.2851 59.2026 79.8112C61.666 80.5995 63.0253 83.2342 62.2401 85.6987C61.7162 87.3431 59.9583 88.2514 58.3139 87.7275C57.106 87.3426 56.2952 86.2919 56.1576 85.1095C55.2737 84.312 54.8874 83.0424 55.2738 81.8349Z" fill="#FD5000" fill-rule="evenodd"/>
<path clip-rule="evenodd" d="M58.6137 85.8915C59.7983 85.752 60.8493 84.9368 61.2307 83.7253C61.749 82.079 60.8346 80.3244 59.1883 79.8061C56.7253 79.0307 54.0986 80.3915 53.3113 82.8507C52.785 84.4944 53.6909 86.2535 55.3346 86.7798C56.5443 87.1671 57.8164 86.7787 58.6137 85.8915Z" fill="#FD5000" fill-rule="evenodd"/>
<path clip-rule="evenodd" d="M59.3926 83.4441C59.255 82.2616 58.4443 81.2109 57.2363 80.8261C55.5919 80.3021 53.8341 81.2104 53.3101 82.8549C52.5249 85.3193 53.8842 87.954 56.3476 88.7424C57.9914 89.2684 59.7504 88.3624 60.2764 86.7186C60.6628 85.5111 60.2765 84.2415 59.3926 83.4441Z" fill="#FD5000" fill-rule="evenodd"/>
<path clip-rule="evenodd" d="M60.2073 81.7709C61.8524 82.2928 62.763 84.0495 62.2411 85.6946C61.8651 86.8799 61.0334 87.8673 59.9292 88.4393C58.825 89.0113 57.5388 89.1211 56.3536 88.7446C54.7087 88.2219 53.799 86.4649 54.3216 84.82C54.7053 83.6123 55.7545 82.8009 56.9362 82.6617C57.7314 81.7768 58.9995 81.3877 60.2073 81.7709Z" fill="#FD5000" fill-rule="evenodd"/>
<path clip-rule="evenodd" d="M22.2611 0.0035551H59.1084L59.2109 0.00523427C64.2418 0.170227 68.2893 4.19614 68.4812 9.22609C68.4827 9.26578 68.4834 9.3055 68.4834 9.34522V26.3577C68.4834 28.0836 67.0843 29.4827 65.3584 29.4827C63.6326 29.4827 62.2334 28.0836 62.2334 26.3577V9.41445C62.1428 7.69967 60.7651 6.33156 59.0489 6.25355H22.1991C20.3943 6.22893 18.8872 7.61251 18.7501 9.40389V65.2553C18.7409 66.8262 19.9112 68.1543 21.4708 68.3428C23.1842 68.5498 24.4054 70.1067 24.1984 71.8201C23.9913 73.5335 22.4345 74.7547 20.7211 74.5477C16.0119 73.9787 12.4773 69.9709 12.5001 65.2286C12.5001 65.2252 12.5001 65.2219 12.5002 65.2185L15.6251 65.2369H12.5001V65.2286V9.30356C12.5001 9.24586 12.5017 9.18817 12.5049 9.13057C12.7912 3.96666 17.0923 -0.0547211 22.2611 0.0035551Z" fill="#FD5000" fill-rule="evenodd"/>
<path clip-rule="evenodd" d="M23.7 12.459C23.7092 10.7331 25.1157 9.34146 26.8416 9.35063C28.0858 9.35724 29.2764 9.85875 30.1503 10.7445C31.0243 11.6302 31.5099 12.8273 31.4999 14.0715C31.486 15.7974 30.0757 17.1852 28.3498 17.1713C27.0846 17.1612 26.001 16.4004 25.5182 15.3151C24.4394 14.8179 23.6933 13.7242 23.7 12.459Z" fill="#FD5000" fill-rule="evenodd"/>
<path clip-rule="evenodd" d="M28.1094 15.3253C29.1974 14.8341 29.9533 13.7384 29.95 12.4674C29.9454 10.7415 28.5426 9.34605 26.8167 9.3506C24.2474 9.35737 22.1623 11.4313 22.1417 14.0006C22.1279 15.7264 23.5158 17.1367 25.2417 17.1505C26.5126 17.1606 27.6124 16.4106 28.1094 15.3253Z" fill="#FD5000" fill-rule="evenodd"/>
<path clip-rule="evenodd" d="M28.1288 12.7585C27.6442 11.6662 26.5516 10.9029 25.2793 10.8994C23.5534 10.8948 22.1505 12.2901 22.1459 14.0159C22.1389 16.5949 24.213 18.6969 26.7919 18.7242C28.5177 18.7425 29.9315 17.3584 29.9498 15.6326C29.9633 14.3603 29.2147 13.2576 28.1288 12.7585Z" fill="#FD5000" fill-rule="evenodd"/>
<path clip-rule="evenodd" d="M28.4082 10.9207C30.1341 10.9299 31.5257 12.3364 31.5165 14.0623C31.5099 15.3055 31.0097 16.4951 30.1259 17.3695C29.2422 18.2439 28.0473 18.7314 26.804 18.7248C25.0782 18.7155 23.6866 17.309 23.6958 15.5831C23.7026 14.3158 24.4628 13.2287 25.5497 12.7442C26.0458 11.6626 27.1409 10.914 28.4082 10.9207Z" fill="#FD5000" fill-rule="evenodd"/>
</svg>