<?xml version="1.0" encoding="utf-8"?>
<svg xmlns="http://www.w3.org/2000/svg" width="100" height="100" viewBox="0 0 100 100" fill="none">
<path fill-rule="evenodd" clip-rule="evenodd" d="M14.0625 53.125C14.0625 51.3991 15.4616 50 17.1875 50C19.7763 50 21.875 52.0987 21.875 54.6875C21.875 56.4134 20.4759 57.8125 18.75 57.8125C17.4827 57.8125 16.3915 57.0581 15.9012 55.9738C14.8169 55.4835 14.0625 54.3923 14.0625 53.125Z" fill="#FD5000"/>
<path fill-rule="evenodd" clip-rule="evenodd" d="M18.4738 55.9738C19.5581 55.4835 20.3125 54.3923 20.3125 53.125C20.3125 51.3991 18.9134 50 17.1875 50C14.5987 50 12.5 52.0987 12.5 54.6875C12.5 56.4134 13.8991 57.8125 15.625 57.8125C16.8923 57.8125 17.9835 57.0581 18.4738 55.9738Z" fill="#FD5000"/>
<path fill-rule="evenodd" clip-rule="evenodd" d="M18.4738 53.4012C17.9835 52.3169 16.8923 51.5625 15.625 51.5625C13.8991 51.5625 12.5 52.9616 12.5 54.6875C12.5 57.2763 14.5987 59.375 17.1875 59.375C18.9134 59.375 20.3125 57.9759 20.3125 56.25C20.3125 54.9827 19.5581 53.8915 18.4738 53.4012Z" fill="#FD5000"/>
<path fill-rule="evenodd" clip-rule="evenodd" d="M18.75 51.5625C20.4759 51.5625 21.875 52.9616 21.875 54.6875C21.875 57.2763 19.7763 59.375 17.1875 59.375C15.4616 59.375 14.0625 57.9759 14.0625 56.25C14.0625 54.9827 14.8169 53.8915 15.9012 53.4012C16.3915 52.3169 17.4827 51.5625 18.75 51.5625Z" fill="#FD5000"/>
<path fill-rule="evenodd" clip-rule="evenodd" d="M31.25 53.125C31.25 51.3991 32.6491 50 34.375 50C36.9638 50 39.0625 52.0987 39.0625 54.6875C39.0625 56.4134 37.6634 57.8125 35.9375 57.8125C34.6702 57.8125 33.579 57.0581 33.0887 55.9738C32.0044 55.4835 31.25 54.3923 31.25 53.125Z" fill="#FD5000"/>
<path fill-rule="evenodd" clip-rule="evenodd" d="M35.6613 55.9738C36.7456 55.4835 37.5 54.3923 37.5 53.125C37.5 51.3991 36.1009 50 34.375 50C31.7862 50 29.6875 52.0987 29.6875 54.6875C29.6875 56.4134 31.0866 57.8125 32.8125 57.8125C34.0798 57.8125 35.171 57.0581 35.6613 55.9738Z" fill="#FD5000"/>
<path fill-rule="evenodd" clip-rule="evenodd" d="M35.6613 53.4012C35.171 52.3169 34.0798 51.5625 32.8125 51.5625C31.0866 51.5625 29.6875 52.9616 29.6875 54.6875C29.6875 57.2763 31.7862 59.375 34.375 59.375C36.1009 59.375 37.5 57.9759 37.5 56.25C37.5 54.9827 36.7456 53.8915 35.6613 53.4012Z" fill="#FD5000"/>
<path fill-rule="evenodd" clip-rule="evenodd" d="M35.9375 51.5625C37.6634 51.5625 39.0625 52.9616 39.0625 54.6875C39.0625 57.2763 36.9638 59.375 34.375 59.375C32.6491 59.375 31.25 57.9759 31.25 56.25C31.25 54.9827 32.0044 53.8915 33.0887 53.4012C33.579 52.3169 34.6702 51.5625 35.9375 51.5625Z" fill="#FD5000"/>
<path fill-rule="evenodd" clip-rule="evenodd" d="M48.4375 53.125C48.4375 51.3991 49.8366 50 51.5625 50C54.1513 50 56.25 52.0987 56.25 54.6875C56.25 56.4134 54.8509 57.8125 53.125 57.8125C51.8577 57.8125 50.7665 57.0581 50.2762 55.9738C49.1919 55.4835 48.4375 54.3923 48.4375 53.125Z" fill="#FD5000"/>
<path fill-rule="evenodd" clip-rule="evenodd" d="M52.8488 55.9738C53.9331 55.4835 54.6875 54.3923 54.6875 53.125C54.6875 51.3991 53.2884 50 51.5625 50C48.9737 50 46.875 52.0987 46.875 54.6875C46.875 56.4134 48.2741 57.8125 50 57.8125C51.2673 57.8125 52.3585 57.0581 52.8488 55.9738Z" fill="#FD5000"/>
<path fill-rule="evenodd" clip-rule="evenodd" d="M52.8488 53.4012C52.3585 52.3169 51.2673 51.5625 50 51.5625C48.2741 51.5625 46.875 52.9616 46.875 54.6875C46.875 57.2763 48.9737 59.375 51.5625 59.375C53.2884 59.375 54.6875 57.9759 54.6875 56.25C54.6875 54.9827 53.9331 53.8915 52.8488 53.4012Z" fill="#FD5000"/>
<path fill-rule="evenodd" clip-rule="evenodd" d="M53.125 51.5625C54.8509 51.5625 56.25 52.9616 56.25 54.6875C56.25 57.2763 54.1513 59.375 51.5625 59.375C49.8366 59.375 48.4375 57.9759 48.4375 56.25C48.4375 54.9827 49.1919 53.8915 50.2762 53.4012C50.7665 52.3169 51.8577 51.5625 53.125 51.5625Z" fill="#FD5000"/>
<path fill-rule="evenodd" clip-rule="evenodd" d="M48.4375 18.75C48.4375 17.0241 49.8366 15.625 51.5625 15.625C54.1513 15.625 56.25 17.7237 56.25 20.3125C56.25 22.0384 54.8509 23.4375 53.125 23.4375C51.8577 23.4375 50.7665 22.6831 50.2762 21.5988C49.1919 21.1085 48.4375 20.0173 48.4375 18.75Z" fill="#FD5000"/>
<path fill-rule="evenodd" clip-rule="evenodd" d="M52.8488 21.5988C53.9331 21.1085 54.6875 20.0173 54.6875 18.75C54.6875 17.0241 53.2884 15.625 51.5625 15.625C48.9737 15.625 46.875 17.7237 46.875 20.3125C46.875 22.0384 48.2741 23.4375 50 23.4375C51.2673 23.4375 52.3585 22.6831 52.8488 21.5988Z" fill="#FD5000"/>
<path fill-rule="evenodd" clip-rule="evenodd" d="M52.8488 19.0262C52.3585 17.9419 51.2673 17.1875 50 17.1875C48.2741 17.1875 46.875 18.5866 46.875 20.3125C46.875 22.9013 48.9737 25 51.5625 25C53.2884 25 54.6875 23.6009 54.6875 21.875C54.6875 20.6077 53.9331 19.5165 52.8488 19.0262Z" fill="#FD5000"/>
<path fill-rule="evenodd" clip-rule="evenodd" d="M53.125 17.1875C54.8509 17.1875 56.25 18.5866 56.25 20.3125C56.25 22.9013 54.1513 25 51.5625 25C49.8366 25 48.4375 23.6009 48.4375 21.875C48.4375 20.6077 49.1919 19.5165 50.2762 19.0262C50.7665 17.9419 51.8577 17.1875 53.125 17.1875Z" fill="#FD5000"/>
<path fill-rule="evenodd" clip-rule="evenodd" d="M76.5625 18.75C76.5625 17.0241 77.9616 15.625 79.6875 15.625C82.2763 15.625 84.375 17.7237 84.375 20.3125C84.375 22.0384 82.9759 23.4375 81.25 23.4375C79.9827 23.4375 78.8915 22.6831 78.4012 21.5988C77.3169 21.1085 76.5625 20.0173 76.5625 18.75Z" fill="#FD5000"/>
<path fill-rule="evenodd" clip-rule="evenodd" d="M80.9738 21.5988C82.0581 21.1085 82.8125 20.0173 82.8125 18.75C82.8125 17.0241 81.4134 15.625 79.6875 15.625C77.0987 15.625 75 17.7237 75 20.3125C75 22.0384 76.3991 23.4375 78.125 23.4375C79.3923 23.4375 80.4835 22.6831 80.9738 21.5988Z" fill="#FD5000"/>
<path fill-rule="evenodd" clip-rule="evenodd" d="M80.9738 19.0262C80.4835 17.9419 79.3923 17.1875 78.125 17.1875C76.3991 17.1875 75 18.5866 75 20.3125C75 22.9013 77.0987 25 79.6875 25C81.4134 25 82.8125 23.6009 82.8125 21.875C82.8125 20.6077 82.0581 19.5165 80.9738 19.0262Z" fill="#FD5000"/>
<path fill-rule="evenodd" clip-rule="evenodd" d="M81.25 17.1875C82.9759 17.1875 84.375 18.5866 84.375 20.3125C84.375 22.9013 82.2763 25 79.6875 25C77.9616 25 76.5625 23.6009 76.5625 21.875C76.5625 20.6077 77.3169 19.5165 78.4012 19.0262C78.8915 17.9419 79.9827 17.1875 81.25 17.1875Z" fill="#FD5000"/>
<path fill-rule="evenodd" clip-rule="evenodd" d="M76.5625 46.875C76.5625 45.1491 77.9616 43.75 79.6875 43.75C82.2763 43.75 84.375 45.8487 84.375 48.4375C84.375 50.1634 82.9759 51.5625 81.25 51.5625C79.9827 51.5625 78.8915 50.8081 78.4012 49.7238C77.3169 49.2335 76.5625 48.1423 76.5625 46.875Z" fill="#FD5000"/>
<path fill-rule="evenodd" clip-rule="evenodd" d="M80.9738 49.7238C82.0581 49.2335 82.8125 48.1423 82.8125 46.875C82.8125 45.1491 81.4134 43.75 79.6875 43.75C77.0987 43.75 75 45.8487 75 48.4375C75 50.1634 76.3991 51.5625 78.125 51.5625C79.3923 51.5625 80.4835 50.8081 80.9738 49.7238Z" fill="#FD5000"/>
<path fill-rule="evenodd" clip-rule="evenodd" d="M80.9738 47.1512C80.4835 46.0669 79.3923 45.3125 78.125 45.3125C76.3991 45.3125 75 46.7116 75 48.4375C75 51.0263 77.0987 53.125 79.6875 53.125C81.4134 53.125 82.8125 51.7259 82.8125 50C82.8125 48.7327 82.0581 47.6415 80.9738 47.1512Z" fill="#FD5000"/>
<path fill-rule="evenodd" clip-rule="evenodd" d="M81.25 45.3125C82.9759 45.3125 84.375 46.7116 84.375 48.4375C84.375 51.0263 82.2763 53.125 79.6875 53.125C77.9616 53.125 76.5625 51.7259 76.5625 50C76.5625 48.7327 77.3169 47.6415 78.4012 47.1512C78.8915 46.0669 79.9827 45.3125 81.25 45.3125Z" fill="#FD5000"/>
<path fill-rule="evenodd" clip-rule="evenodd" d="M14.0625 75C14.0625 73.2741 15.4616 71.875 17.1875 71.875C19.7763 71.875 21.875 73.9737 21.875 76.5625C21.875 78.2884 20.4759 79.6875 18.75 79.6875C17.4827 79.6875 16.3915 78.9331 15.9012 77.8488C14.8169 77.3585 14.0625 76.2673 14.0625 75Z" fill="#FD5000"/>
<path fill-rule="evenodd" clip-rule="evenodd" d="M18.4738 77.8488C19.5581 77.3585 20.3125 76.2673 20.3125 75C20.3125 73.2741 18.9134 71.875 17.1875 71.875C14.5987 71.875 12.5 73.9737 12.5 76.5625C12.5 78.2884 13.8991 79.6875 15.625 79.6875C16.8923 79.6875 17.9835 78.9331 18.4738 77.8488Z" fill="#FD5000"/>
<path fill-rule="evenodd" clip-rule="evenodd" d="M18.4738 75.2762C17.9835 74.1919 16.8923 73.4375 15.625 73.4375C13.8991 73.4375 12.5 74.8366 12.5 76.5625C12.5 79.1513 14.5987 81.25 17.1875 81.25C18.9134 81.25 20.3125 79.8509 20.3125 78.125C20.3125 76.8577 19.5581 75.7665 18.4738 75.2762Z" fill="#FD5000"/>
<path fill-rule="evenodd" clip-rule="evenodd" d="M18.75 73.4375C20.4759 73.4375 21.875 74.8366 21.875 76.5625C21.875 79.1513 19.7763 81.25 17.1875 81.25C15.4616 81.25 14.0625 79.8509 14.0625 78.125C14.0625 76.8577 14.8169 75.7665 15.9012 75.2762C16.3915 74.1919 17.4827 73.4375 18.75 73.4375Z" fill="#FD5000"/>
<path fill-rule="evenodd" clip-rule="evenodd" d="M31.25 75C31.25 73.2741 32.6491 71.875 34.375 71.875C36.9638 71.875 39.0625 73.9737 39.0625 76.5625C39.0625 78.2884 37.6634 79.6875 35.9375 79.6875C34.6702 79.6875 33.579 78.9331 33.0887 77.8488C32.0044 77.3585 31.25 76.2673 31.25 75Z" fill="#FD5000"/>
<path fill-rule="evenodd" clip-rule="evenodd" d="M35.6613 77.8488C36.7456 77.3585 37.5 76.2673 37.5 75C37.5 73.2741 36.1009 71.875 34.375 71.875C31.7862 71.875 29.6875 73.9737 29.6875 76.5625C29.6875 78.2884 31.0866 79.6875 32.8125 79.6875C34.0798 79.6875 35.171 78.9331 35.6613 77.8488Z" fill="#FD5000"/>
<path fill-rule="evenodd" clip-rule="evenodd" d="M35.6613 75.2762C35.171 74.1919 34.0798 73.4375 32.8125 73.4375C31.0866 73.4375 29.6875 74.8366 29.6875 76.5625C29.6875 79.1513 31.7862 81.25 34.375 81.25C36.1009 81.25 37.5 79.8509 37.5 78.125C37.5 76.8577 36.7456 75.7665 35.6613 75.2762Z" fill="#FD5000"/>
<path fill-rule="evenodd" clip-rule="evenodd" d="M35.9375 73.4375C37.6634 73.4375 39.0625 74.8366 39.0625 76.5625C39.0625 79.1513 36.9638 81.25 34.375 81.25C32.6491 81.25 31.25 79.8509 31.25 78.125C31.25 76.8577 32.0044 75.7665 33.0887 75.2762C33.579 74.1919 34.6702 73.4375 35.9375 73.4375Z" fill="#FD5000"/>
<path fill-rule="evenodd" clip-rule="evenodd" d="M48.4375 75C48.4375 73.2741 49.8366 71.875 51.5625 71.875C54.1513 71.875 56.25 73.9737 56.25 76.5625C56.25 78.2884 54.8509 79.6875 53.125 79.6875C51.8577 79.6875 50.7665 78.9331 50.2762 77.8488C49.1919 77.3585 48.4375 76.2673 48.4375 75Z" fill="#FD5000"/>
<path fill-rule="evenodd" clip-rule="evenodd" d="M52.8488 77.8488C53.9331 77.3585 54.6875 76.2673 54.6875 75C54.6875 73.2741 53.2884 71.875 51.5625 71.875C48.9737 71.875 46.875 73.9737 46.875 76.5625C46.875 78.2884 48.2741 79.6875 50 79.6875C51.2673 79.6875 52.3585 78.9331 52.8488 77.8488Z" fill="#FD5000"/>
<path fill-rule="evenodd" clip-rule="evenodd" d="M52.8488 75.2762C52.3585 74.1919 51.2673 73.4375 50 73.4375C48.2741 73.4375 46.875 74.8366 46.875 76.5625C46.875 79.1513 48.9737 81.25 51.5625 81.25C53.2884 81.25 54.6875 79.8509 54.6875 78.125C54.6875 76.8577 53.9331 75.7665 52.8488 75.2762Z" fill="#FD5000"/>
<path fill-rule="evenodd" clip-rule="evenodd" d="M53.125 73.4375C54.8509 73.4375 56.25 74.8366 56.25 76.5625C56.25 79.1513 54.1513 81.25 51.5625 81.25C49.8366 81.25 48.4375 79.8509 48.4375 78.125C48.4375 76.8577 49.1919 75.7665 50.2762 75.2762C50.7665 74.1919 51.8577 73.4375 53.125 73.4375Z" fill="#FD5000"/>
<path fill-rule="evenodd" clip-rule="evenodd" d="M0 38.5417C0 34.5146 3.26459 31.25 7.29167 31.25H61.4583C65.4854 31.25 68.75 34.5146 68.75 38.5417V92.7083C68.75 96.7354 65.4854 100 61.4583 100H7.29167C3.26459 100 0 96.7354 0 92.7083V38.5417ZM7.29167 37.5C6.71637 37.5 6.25 37.9664 6.25 38.5417V92.7083C6.25 93.2836 6.71637 93.75 7.29167 93.75H61.4583C62.0336 93.75 62.5 93.2836 62.5 92.7083V38.5417C62.5 37.9664 62.0336 37.5 61.4583 37.5H7.29167Z" fill="#FD5000"/>
<path fill-rule="evenodd" clip-rule="evenodd" d="M31.25 9.375C31.25 4.19733 35.4473 0 40.625 0H90.625C95.8027 0 100 4.19733 100 9.375V59.375C100 64.5527 95.8027 68.75 90.625 68.75H78.125C76.3991 68.75 75 67.3509 75 65.625C75 63.8991 76.3991 62.5 78.125 62.5H90.625C92.3509 62.5 93.75 61.1009 93.75 59.375V9.375C93.75 7.64911 92.3509 6.25 90.625 6.25H40.625C38.8991 6.25 37.5 7.64911 37.5 9.375V21.875C37.5 23.6009 36.1009 25 34.375 25C32.6491 25 31.25 23.6009 31.25 21.875V9.375Z" fill="#FD5000"/>
</svg>