<svg xmlns="http://www.w3.org/2000/svg" fill='#fff' id="main-icons_trophy" viewBox="0 0 16 16"><path d="M15.5312 1.1548H13.478c.0075-.2274.0116-.4562.0116-.686A.4687.4687 0 0 0 13.0209 0H2.9793a.4687.4687 0 0 0-.4688.4688c0 .2298.004.4586.0115.686H.4688A.4687.4687 0 0 0 0 1.6235c0 2.1004.549 4.082 1.5456 5.5799.9853 1.4808 2.2977 2.3302 3.7153 2.4128.3214.3497.6612.6349 1.0151.8524v2.0834h-.7864c-.9507 0-1.724.7734-1.724 1.724v.7864h-.0333a.4687.4687 0 1 0 0 .9375h8.5354a.4688.4688 0 0 0 0-.9375h-.0333v-.7864c0-.9506-.7735-1.724-1.724-1.724H9.724v-2.0834c.3539-.2175.6936-.5027 1.015-.8524 1.4177-.0826 2.73-.932 3.7153-2.4128C15.451 5.7054 16 3.7239 16 1.6235c0-.2589-.21-.4687-.4688-.4687ZM2.3262 6.684C1.504 5.4485 1.021 3.8326.9474 2.0923h1.627c.169 2.1394.6712 4.1168 1.4561 5.6866.125.25.2557.4861.3914.7087-.7797-.2945-1.5012-.91-2.0957-1.8035Zm11.3476 0c-.5945.8935-1.316 1.509-2.0957 1.8035a9.6096 9.6096 0 0 0 .3914-.7087c.7849-1.5698 1.287-3.5472 1.4562-5.6866h1.6269c-.0736 1.7403-.5566 3.3562-1.3788 4.5918Z"/></svg>