<?xml version="1.0" encoding="utf-8"?>
<svg xmlns="http://www.w3.org/2000/svg" fill="none" height="100" viewBox="0 0 100 100" width="100">
<path clip-rule="evenodd" d="M65.625 68.2053L56.0828 73.9298L65.625 79.6385V68.2053ZM49.9999 70.2907L63.438 62.2289V62.2289C65.1541 61.1993 67.2908 61.1692 69.0351 62.1503C70.7795 63.1314 71.8635 64.9728 71.8749 66.9741L71.875 66.9919L71.875 80.8681C71.8636 82.8694 70.7795 84.7107 69.0351 85.6918C67.2914 86.6726 65.1557 86.6429 63.4399 85.6143M49.9999 70.2907L36.5714 62.2571V62.2571C34.8557 61.2256 32.7129 61.1908 30.9672 62.1715C29.2198 63.1532 28.1344 64.998 28.125 67.0023L28.125 80.8752L28.125 80.8899C28.1344 82.8942 29.2198 84.7389 30.9672 85.7206C32.7135 86.7017 34.8519 86.6697 36.568 85.6371V85.6371L50.0043 77.5764L63.4399 85.6143M43.9214 73.9373L34.375 79.6643V68.2261L43.9214 73.9373Z" fill="#FD5000" fill-rule="evenodd"/>
<path clip-rule="evenodd" d="M22.8545 65.4569C24.098 66.6537 24.1359 68.632 22.9391 69.8755C16.2287 76.8477 12.4862 86.1522 12.5 95.829C12.5025 97.5549 11.1053 98.956 9.37945 98.9585C7.65356 98.961 6.25246 97.5638 6.25 95.838C6.23391 84.5418 10.6026 73.6804 18.4359 65.5415C19.6327 64.298 21.611 64.2601 22.8545 65.4569Z" fill="#FD5000" fill-rule="evenodd"/>
<path clip-rule="evenodd" d="M77.1455 65.4569C78.389 64.2601 80.3673 64.298 81.5641 65.5415C89.3974 73.6804 93.7661 84.5418 93.75 95.838C93.7475 97.5638 92.3464 98.961 90.6206 98.9585C88.8947 98.956 87.4976 97.5549 87.5 95.829C87.5138 86.1522 83.7713 76.8477 77.0609 69.8755C75.8641 68.632 75.902 66.6537 77.1455 65.4569Z" fill="#FD5000" fill-rule="evenodd"/>
<path clip-rule="evenodd" d="M77.1455 65.4569C78.389 64.2601 80.3673 64.298 81.5641 65.5415C89.3974 73.6804 93.7661 84.5418 93.75 95.838C93.7475 97.5638 92.3464 98.961 90.6206 98.9585C88.8947 98.956 87.4976 97.5549 87.5 95.829C87.5138 86.1522 83.7713 76.8477 77.0609 69.8755C75.8641 68.632 75.902 66.6537 77.1455 65.4569Z" fill="#FD5000" fill-rule="evenodd"/>
<path clip-rule="evenodd" d="M22.8545 65.4569C24.098 66.6537 24.1359 68.632 22.9391 69.8755C16.2287 76.8477 12.4862 86.1522 12.5 95.829C12.5025 97.5549 11.1053 98.956 9.37945 98.9585C7.65356 98.961 6.25246 97.5638 6.25 95.838C6.23391 84.5418 10.6026 73.6804 18.4359 65.5415C19.6327 64.298 21.611 64.2601 22.8545 65.4569Z" fill="#FD5000" fill-rule="evenodd"/>
<path clip-rule="evenodd" d="M42.5601 17.8799C43.8417 17.7812 45.053 18.4774 45.613 19.6344C50.1009 28.9087 61.2254 32.8321 70.5383 28.4251C72.0984 27.6869 73.9615 28.3531 74.6997 29.9132C75.4379 31.4732 74.7717 33.3363 73.2117 34.0745C62.6892 39.0538 50.4318 36.055 43.2977 27.4967C40.1199 32.7755 35.0609 36.7657 29.0208 38.5729C27.3673 39.0676 25.6258 38.1282 25.1311 36.4747C24.6364 34.8213 25.5758 33.0798 27.2292 32.5851C33.2505 30.7836 37.9726 26.0911 39.8118 20.0812C40.188 18.852 41.2784 17.9786 42.5601 17.8799Z" fill="#FD5000" fill-rule="evenodd"/>
<path clip-rule="evenodd" d="M67.8571 38.6817L67.8571 38.6719L67.8571 24.6094C67.8571 14.9012 59.8622 7.03125 50 7.03125C40.1378 7.03125 32.1429 14.9012 32.1429 24.6094V38.6817C32.1361 43.4009 34.0666 47.9226 37.496 51.2203L32.5048 56.25C27.697 51.6269 24.9906 45.2878 25 38.6719V24.6094C25 11.018 36.1929 0 50 0C63.8071 0 75 11.018 75 24.6094V38.6719C75.0094 45.2878 72.303 51.6269 67.4952 56.25L62.504 51.2203C65.9334 47.9226 67.8639 43.4009 67.8571 38.6817Z" fill="#FD5000" fill-rule="evenodd"/>
</svg>