<svg xmlns="http://www.w3.org/2000/svg" id="main-icons_hot" viewBox="0 0 28 28">
            <path fill-rule="evenodd" clip-rule="evenodd" d="M24.9734 18.6725C24.9734 15.1258 22.92 10.7683 21.5375 8.23667L20.3067 6.15417C20.422 6.9543 20.3764 7.76939 20.1725 8.55167C19.905 9.23807 19.4955 9.86025 18.9709 10.3775C18.9111 8.57198 18.378 6.81385 17.425 5.27917C17.2442 5.01083 16.7834 4.27992 16.27 3.62833C15.2574 2.3379 14.0057 1.25456 12.5834 0.4375C13.0812 1.46698 13.38 2.58124 13.4642 3.72167C13.4234 5.06333 12.9975 5.86833 10.985 8.49333C8.97253 11.1183 9.46837 15.0325 9.46837 15.0325C9.30761 14.4856 9.08857 13.9576 8.81503 13.4575C8.29003 12.4367 6.1492 11.235 6.01504 11.165C6.07337 11.3108 7.03587 13.7083 5.72337 15.3358C4.05504 17.4183 2.7192 18.97 3.0867 22.085C3.55337 26.0458 8.06254 27.1542 10.1334 27.4517H10.1392C10.7634 27.545 11.16 27.5625 11.16 27.5625C9.79678 27.0958 9.01978 25.3808 8.91245 24.4376C8.82906 23.9003 8.86305 23.3513 9.01209 22.8283C9.16112 22.3054 9.42166 21.821 9.77578 21.4083C10.0535 21.028 11.0795 20.0083 11.4249 19.6583C12.3304 18.8852 12.9611 17.8396 13.2227 16.6781C13.3636 15.866 13.3889 15.038 13.298 14.2188C14.258 14.8278 15.0714 15.6418 15.6797 16.6022C16.1541 17.3549 16.4175 18.2212 16.4421 19.1106C16.7004 18.8547 16.9021 18.5475 17.0342 18.2087C17.1346 17.8209 17.1562 17.4169 17.0978 17.0205C17.0978 17.0205 19.4638 20.2872 19.3973 23.1898C19.3139 26.8275 17.064 27.5608 17.0605 27.5648C17.0844 27.559 24.9734 26.5755 24.9734 18.6725Z" fill='#d71d1d'></path>
        </svg>