<?xml version="1.0" encoding="iso-8859-1"?>
<!-- Generator: Adobe Illustrator 19.0.0, SVG Export Plug-In . SVG Version: 6.00 Build 0)  -->
<svg version="1.1" id="gambleware" xmlns="http://www.w3.org/2000/svg" x="0px" y="0px"
     viewBox="-295 279.6 250.2 37.7" style="enable-background:new -295 279.6 250.2 37.7;" xml:space="preserve">
<style type="text/css">
	.st0{fill:#747c7f;}
	.st1{fill:#8f9698;}
</style>
<path id="g" class="st0" d="M-289.4,298.2c0,3.9,1.7,6.1,4.8,6.1c2.9,0,5.1-2.6,5.1-6.3c0-3.5-2-6.1-4.7-6.1
	C-287.4,292-289.4,294.4-289.4,298.2 M-279.6,305.6c-0.9,1-2.7,3.2-6.6,3.2c-5.1,0-8.8-4.4-8.8-10.7s3.8-10.7,9.2-10.7
	c2.1,0,3.8,0.8,6.3,2.8v-2.3h7.4v4.2h-2v16.8c0,5.2-3.9,8.3-10.5,8.3c-3.2,0-5.7-0.7-7.5-2.2c-1.4-1.1-2-2.2-2.6-4.8h5.3
	c0.7,2,2.2,2.9,4.7,2.9c3.1,0,5.2-1.6,5.2-4.1C-279.6,309-279.6,305.6-279.6,305.6z"/>
<path id="a_2_" class="st0" d="M-257,299.4c-5.1,0.5-8.5,0.9-8.5,4c0,1.8,1.4,3,3.6,3c2.8,0,4.9-2.1,4.9-4.8
	C-257,301.5-257,299.4-257,299.4z M-251.9,305.5h1.9v4.2h-6.8v-2.6c-2.2,2.3-3.9,3-6.6,3c-4.4,0-7.7-2.9-7.7-6.8
	c0-6.4,7.2-7.1,14.2-7.8c0-3.4-0.9-4.2-4-4.2c-2.2,0-3.8,1.3-3.9,3.3l-5.3-0.2c0.3-4.4,3.8-7.2,9-7.2c6,0,9.3,2.7,9.3,7.7
	L-251.9,305.5L-251.9,305.5z"/>
<path id="m" class="st0" d="M-241.3,290.5c2.3-2.5,3.8-3.1,6.3-3.1s3.8,0.9,5.2,3.4c1.1-1.1,3.1-3.4,6.6-3.4s5.9,2.5,5.9,6.2v12h2
	v4.2h-7.4V295c0-1.9-0.9-3.1-2.3-3.1c-2.2,0-4.3,2.9-4.3,5.9v7.6h2.1v4.2h-7.5v-14.4c0-2.2-0.7-3.3-2.3-3.3c-2.4,0-4.5,2.9-4.4,6.4
	v7.1h2.1v4.2h-9.3v-4.2h1.8v-13.3h-1.9v-4.2h7.2v2.6H-241.3z"/>
<path id="b" class="st0" d="M-206.7,298.9c0,4.5,1.8,6.9,5.3,6.9c3,0,4.9-2.7,4.9-7c0-4.3-1.9-7-4.9-7
	C-204.8,291.8-206.7,294.4-206.7,298.9 M-214,279.6h7.4v10.7c2.2-2.2,3.9-3.1,6.2-3.1c5.5,0,9.4,4.7,9.4,11.3c0,7-3.7,11.7-9.1,11.7
	c-2.7,0-4.2-0.7-6.7-2.9v2.4h-7.4v-4.2h2.3v-21.7h-2.1V279.6L-214,279.6z"/>
<polygon id="l" class="st0" points="-189.7,279.6 -182.3,279.6 -182.3,305.5 -180.2,305.5 -180.2,309.7 -189.7,309.7 -189.7,305.5 
	-187.6,305.5 -187.6,283.8 -189.7,283.8 "/>
<path id="e_1_" class="st0" d="M-164.2,296.1c-0.4-2.8-2-4.3-4.6-4.3c-2.4,0-4.2,1.6-4.9,4.3H-164.2z M-158.6,302.6
	c-1,4.7-4.9,7.7-10.3,7.7c-6.1,0-10.6-4.8-10.6-11.5c0-6.6,4.5-11.5,10.7-11.5c3.5,0,6.5,1.6,8.4,4.5c2,3.1,2.1,6,2.2,8.2H-174
	c0.5,5.7,4.2,6,5.3,6c2.2,0,3.6-1,4.5-3.3L-158.6,302.6L-158.6,302.6z"/>
<path id="a_1_" class="st1" d="M-142.4,298.6l-1.9,0.3c-4,0.6-5.7,1.2-6.8,2.3c-0.6,0.6-0.9,1.4-0.9,2.1c0,2,1.7,3.7,3.8,3.7
	c3,0,5.8-2.7,5.8-5.4L-142.4,298.6L-142.4,298.6z M-142.4,306.8c-2,1.8-3.8,3.4-7.4,3.4c-4.1,0-7.1-2.8-7.1-6.6
	c0-1.7,0.6-3.1,1.6-4.3c1.7-1.7,4.1-2.5,9.9-3.1l2.9-0.3v-1.4c0-2.5-1.6-3.9-4.6-3.9c-2.7,0-4,1-4.5,3.6h-4.5
	c0.3-2.3,0.9-3.5,2.1-4.7c1.7-1.5,4.1-2.3,7.2-2.3c5.4,0,8.6,2.7,8.6,7.3v11.7h2.6v3.5h-6.9L-142.4,306.8L-142.4,306.8z"/>
<polygon id="w" class="st1" points="-135.9,287.8 -127.5,287.8 -127.5,291.3 -129.9,291.3 -126.3,306.1 -122.1,287.8 -118,287.8 
	-113.8,306.1 -110.2,291.3 -112.6,291.3 -112.6,287.8 -104.3,287.8 -104.3,291.3 -106.5,291.3 -111.5,309.7 -116.1,309.7 
	-120.1,293.3 -124,309.7 -128.7,309.7 -133.8,291.3 -135.9,291.3 "/>
<path id="a" class="st1" d="M-89,298.6l-1.9,0.3c-4,0.6-5.7,1.2-6.8,2.3c-0.6,0.6-0.9,1.4-0.9,2.1c0,2,1.7,3.7,3.8,3.7
	c3,0,5.8-2.7,5.8-5.4L-89,298.6L-89,298.6z M-89,306.8c-2,1.8-3.8,3.4-7.3,3.4c-4.1,0-7.1-2.8-7.1-6.6c0-1.7,0.6-3.1,1.6-4.3
	c1.7-1.7,4.1-2.5,9.9-3.1l2.9-0.3v-1.4c0-2.5-1.6-3.9-4.6-3.9c-2.7,0-4,1-4.5,3.6h-4.5c0.3-2.3,0.9-3.5,2.1-4.7
	c1.7-1.5,4.1-2.3,7.2-2.3c5.4,0,8.6,2.7,8.6,7.3v11.7h2.6v3.5H-89V306.8z"/>
<path id="r" class="st1" d="M-73.9,292.7c1.2-2.6,2.5-5.4,6.4-5.4c0.8,0,1.2,0.1,2.1,0.3v4.1c-1.1-0.2-1.5-0.3-2.1-0.3
	c-4.9,0-6.3,4.9-6.3,6.5v8.3h2.5v3.5h-9.3v-3.5h2.5v-15h-2.5v-3.4h6.7L-73.9,292.7L-73.9,292.7z"/>
<path id="e" class="st1" d="M-49.6,296.6c-0.2-3.6-1.9-5.6-4.9-5.6c-4.5,0-5.8,5-5.8,5.6H-49.6z M-45.1,303
	c-0.9,2.2-3.1,7.2-9.4,7.2c-6.2,0-10.4-4.7-10.4-11.7c0-6.5,4.5-11.2,10.5-11.2c3.5,0,9.7,2,9.7,12.3h-15.8c0.2,4.9,3.3,6.9,6.2,6.9
	c2.3,0,3.7-1.1,4.5-3.6h4.7V303z"/>
<g id="XMLID_11_">
</g>
<g id="XMLID_14_">
</g>
<g id="XMLID_15_">
</g>
<g id="XMLID_18_">
</g>
<g id="XMLID_19_">
</g>
<g id="XMLID_22_">
</g>
</svg>
