<svg width="16" height="16" viewBox="0 0 16 16" fill="none" xmlns="http://www.w3.org/2000/svg"><path d="M8 16C9.58225 16 11.129 15.5308 12.4446 14.6518C13.7602 13.7727 14.7855 12.5233 15.391 11.0615C15.9965 9.59966 16.155 7.99113 15.8463 6.43928C15.5376 4.88743 14.7757 3.46197 13.6569 2.34315C12.538 1.22433 11.1126 0.462403 9.56072 0.153721C8.00887 -0.15496 6.40034 0.00346635 4.93853 0.608967C3.47672 1.21447 2.22729 2.23985 1.34824 3.55544C0.469192 4.87103 0 6.41775 0 8C0 10.1217 0.842854 12.1566 2.34315 13.6569C3.84344 15.1571 5.87827 16 8 16ZM8 2.99734C8.21096 2.99734 8.41719 3.0599 8.59261 3.1771C8.76802 3.29431 8.90474 3.4609 8.98547 3.65581C9.0662 3.85071 9.08733 4.06519 9.04617 4.2721C9.00501 4.47901 8.90342 4.66907 8.75424 4.81825C8.60507 4.96743 8.41501 5.06902 8.20809 5.11017C8.00118 5.15133 7.78671 5.13021 7.5918 5.04947C7.39689 4.96874 7.2303 4.83202 7.1131 4.65661C6.99589 4.4812 6.93333 4.27497 6.93333 4.064C6.93333 3.7811 7.04571 3.50979 7.24575 3.30976C7.44579 3.10972 7.7171 2.99734 8 2.99734ZM6.93333 8C6.93333 7.7171 7.04571 7.44579 7.24575 7.24575C7.44579 7.04572 7.7171 6.93333 8 6.93333C8.2829 6.93333 8.55421 7.04572 8.75424 7.24575C8.95428 7.44579 9.06666 7.7171 9.06666 8V12.2667C9.06666 12.5496 8.95428 12.8209 8.75424 13.0209C8.55421 13.221 8.2829 13.3333 8 13.3333C7.7171 13.3333 7.44579 13.221 7.24575 13.0209C7.04571 12.8209 6.93333 12.5496 6.93333 12.2667V8Z" fill="#b55bef"></path></svg>