<?xml version="1.0" encoding="UTF-8"?> <svg xmlns="http://www.w3.org/2000/svg" width="500" height="500" viewBox="0 0 500 500" fill="none"><g clip-path="url(#clip0_112_2)"><path d="M130.529 207.814L104.145 170.222L77.7605 207.818H130.529V207.814Z" fill="#668D3C"></path><path d="M156.926 207.818L167.404 165.734L104.149 207.818H156.918H156.926Z" fill="#9CB844"></path><path d="M51.3803 207.818L40.8987 165.734L104.153 207.818H51.3845H51.3803Z" fill="#9CB844"></path><path d="M104.153 291.985L130.538 334.068L156.922 291.985H104.153V291.985Z" fill="#58237A"></path><path d="M77.7688 334.068L104.157 291.985L130.542 334.068H77.773H77.7688Z" fill="#49267A"></path><path d="M51.3801 291.985L77.7688 334.068L104.153 291.985H51.3844H51.3801Z" fill="#58237A"></path><path d="M104.153 207.813L130.538 249.905L156.922 207.818H104.153V207.813ZM51.3801 207.813L77.7688 249.905L104.153 207.818H51.3844L51.3801 207.813Z" fill="#B53481"></path><path d="M104.153 291.985L130.538 249.901L156.922 291.985H104.153ZM51.3801 291.985L77.7688 249.901L104.153 291.985H51.3844H51.3801Z" fill="#6E297D"></path><path d="M77.7688 249.901L104.157 207.813L130.538 249.905H77.7688V249.901Z" fill="#DA7396"></path><path d="M130.538 249.901L156.922 207.813L183.307 249.905H130.538V249.901ZM25 249.905L51.3844 207.826L77.7689 249.905H25Z" fill="#8F3682"></path><path d="M77.7688 249.897L104.157 291.985L130.542 249.901H77.773L77.7688 249.897Z" fill="#A6488B"></path><path d="M130.538 249.897L156.922 291.985L183.307 249.901H130.538V249.897ZM25 249.897L51.3844 291.985L77.7689 249.901H25V249.897Z" fill="#753582"></path><path fill-rule="evenodd" clip-rule="evenodd" d="M372.956 260.328V259.691C372.956 259.305 373.139 258.842 373.444 258.485C373.631 258.259 373.866 258.077 374.132 257.952C374.398 257.827 374.688 257.763 374.981 257.764H376.637L404.146 287.939V260.116C404.146 259.733 404.333 259.275 404.639 258.91C404.826 258.684 405.061 258.503 405.327 258.379C405.592 258.255 405.882 258.191 406.176 258.192H410.243C410.646 258.192 411.126 258.362 411.508 258.651C411.741 258.818 411.932 259.037 412.065 259.292C412.198 259.546 412.269 259.829 412.272 260.116V302.483C412.272 302.87 412.085 303.333 411.784 303.689C411.596 303.916 411.361 304.099 411.094 304.223C410.828 304.348 410.537 304.412 410.243 304.411H408.578L381.073 273.416V302.059C381.073 302.441 380.891 302.9 380.585 303.265C380.398 303.49 380.163 303.672 379.897 303.796C379.631 303.92 379.341 303.983 379.048 303.982H374.981C374.522 303.964 374.08 303.804 373.716 303.524C373.483 303.357 373.292 303.137 373.159 302.883C373.026 302.628 372.955 302.346 372.952 302.059V260.328H372.956ZM211.092 281.941C211.092 269.188 222.232 258.192 235.719 258.192C242.694 258.192 247.368 260.408 251.991 264.348L252.017 264.369C252.399 264.73 252.551 265.231 252.551 265.677C252.551 266.123 252.403 266.611 252.038 266.967L249.304 269.986C249.146 270.146 248.959 270.272 248.752 270.359C248.545 270.446 248.323 270.491 248.098 270.491C247.618 270.464 247.15 270.332 246.727 270.105L246.655 270.071L246.591 270.02C243.522 267.528 239.599 265.889 235.723 265.889C226.626 265.889 219.663 273.276 219.663 281.512C219.663 289.748 226.626 297.134 235.719 297.134C240.474 297.134 243.488 295.521 246.574 293.025C246.95 292.701 247.432 292.527 247.928 292.537C248.395 292.537 248.922 292.681 249.304 293.046L252.467 296.039C252.849 296.4 253.006 296.901 253.006 297.351C253.009 297.594 252.963 297.835 252.87 298.06C252.777 298.285 252.64 298.488 252.467 298.658C247.797 303.082 241.735 304.835 235.719 304.835C222.261 304.835 211.092 294.732 211.092 281.941V281.941ZM307.842 270.385C307.842 265.35 312.189 258.192 322.981 258.192C327.001 258.213 330.944 259.306 334.401 261.359C335.042 261.742 335.492 262.068 335.657 262.23L335.67 262.242C336.23 262.773 337.198 263.686 336.226 265.129L335.937 265.558C335.224 266.611 335.11 266.781 334.375 267.774C333.98 268.305 333.649 268.7 333.055 268.861C332.494 269.014 331.9 268.683 331.272 268.33C330.256 267.751 329.212 267.224 328.143 266.751C326.487 266.067 324.433 265.46 322.531 265.46C317.436 265.46 315.513 268.632 315.513 270.385C315.513 271.905 316.099 273.127 317.381 274.248C318.701 275.394 320.752 276.43 323.673 277.492L323.685 277.5C327.536 278.999 331.136 280.642 333.772 282.913C336.438 285.214 338.115 288.16 338.115 292.21C338.115 299.07 331.391 304.835 322.531 304.835C318.349 304.835 314.97 303.846 312.512 302.683C310.799 301.894 309.253 300.784 307.957 299.414C307.074 298.531 307.303 297.546 307.914 296.633C308.623 295.585 309.026 294.982 309.782 293.967C310.236 293.352 310.601 293.106 311.187 293.025C311.843 292.942 312.507 293.101 313.055 293.471L313.79 294.014C314.477 294.532 314.978 294.906 316.409 295.67C318.29 296.659 320.659 297.567 322.981 297.567C327.26 297.567 329.998 295.173 329.998 292.214C329.998 290.525 329.226 289.192 327.642 287.943C326.029 286.67 323.626 285.528 320.468 284.246C317.054 282.955 313.904 281.418 311.603 279.236C309.277 277.037 307.846 274.201 307.846 270.385H307.842ZM351.921 258.625C351.628 258.624 351.338 258.688 351.072 258.812C350.806 258.936 350.571 259.117 350.384 259.343C350.091 259.677 349.919 260.1 349.896 260.544V302.059C349.899 302.346 349.97 302.628 350.103 302.883C350.236 303.137 350.426 303.357 350.66 303.524C351.042 303.812 351.522 303.982 351.921 303.982H356.442C357.143 303.982 357.66 303.642 357.983 303.26C358.275 302.926 358.445 302.502 358.467 302.059V260.544C358.464 260.257 358.393 259.975 358.26 259.721C358.127 259.466 357.936 259.247 357.703 259.08C357.34 258.8 356.9 258.64 356.442 258.621H351.921V258.625ZM281.589 259.525C281.322 259.037 280.77 258.252 279.806 258.252C278.838 258.252 278.282 258.948 278.019 259.513L257.76 301.274C257.631 301.515 257.564 301.786 257.565 302.06C257.567 302.334 257.637 302.604 257.769 302.844C258.109 303.316 258.788 303.935 259.471 303.948C260.983 303.982 263.751 303.982 263.751 303.982C264.141 303.982 264.6 303.821 264.939 303.625C265.108 303.536 265.259 303.416 265.385 303.273C265.541 303.087 265.669 302.878 265.763 302.653C266.421 301.197 267.087 299.839 267.75 298.472C268.369 297.202 268.993 295.925 269.618 294.566H290.449L294.287 302.645C294.384 303.494 295.289 303.982 296.303 303.982H300.37C301.067 303.982 301.644 303.642 301.928 303.095C302.062 302.822 302.128 302.522 302.119 302.218C302.11 301.915 302.027 301.618 301.877 301.354L281.589 259.525V259.525ZM272.483 287.723L279.806 272.312L287.134 287.723H272.483ZM448.217 258.192C434.725 258.192 424.035 268.763 424.035 281.512C424.035 294.286 434.742 304.407 448.217 304.407C462.133 304.407 472.848 294.29 472.848 281.512C472.848 268.742 461.691 258.192 448.217 258.192ZM431.702 281.087C431.702 272.461 439.085 265.465 448.217 265.465C457.344 265.465 464.726 272.461 464.726 281.087C464.726 289.718 457.344 296.71 448.212 296.71C439.085 296.71 431.702 289.718 431.702 281.087Z" fill="white"></path><path fill-rule="evenodd" clip-rule="evenodd" d="M473.489 240.193C473.867 239.653 473.824 238.995 473.535 238.435L453.464 195.961C453.201 195.413 452.173 194.832 451.167 194.844C450.106 194.857 449.197 195.324 448.815 196.156L428.773 238.567C428.514 239.195 428.901 239.789 429.304 240.248C429.72 240.723 430.352 240.986 431.159 240.986H435.51C435.915 240.965 436.308 240.845 436.657 240.638C436.985 240.385 437.255 240.064 437.446 239.696L441.157 231.43H461.644L465.351 239.683C465.707 240.46 466.314 240.986 467.295 240.986H471.646C472.432 240.986 473.111 240.732 473.489 240.193V240.193ZM289.825 195.218C290.173 195.011 290.567 194.892 290.971 194.87H291.842C292.266 194.87 292.623 195.069 292.877 195.252C293.132 195.435 293.378 195.668 293.586 195.863L293.688 195.961L313.323 238.443C313.611 238.995 313.654 239.658 313.276 240.197C312.894 240.736 312.215 240.991 311.434 240.991H307.082C306.101 240.991 305.231 240.511 305.138 239.683L301.432 231.435H280.948L277.234 239.7C277.191 239.938 277.064 240.125 276.945 240.252C276.507 240.694 275.919 240.958 275.298 240.991H270.946C270.161 240.991 269.482 240.736 269.104 240.197C268.726 239.658 268.768 238.995 269.061 238.439L289.035 196.156C289.08 195.952 289.18 195.764 289.324 195.613C289.47 195.458 289.639 195.326 289.825 195.222V195.218ZM324.059 195.702C323.536 195.674 323.023 195.851 322.628 196.194C322.452 196.376 322.315 196.591 322.226 196.828C322.136 197.065 322.097 197.317 322.11 197.57V239.118C322.11 239.632 322.246 240.129 322.628 240.494C323.01 240.859 323.528 240.986 324.059 240.986H347.569C348.104 240.986 348.622 240.859 349.004 240.494C349.181 240.313 349.318 240.097 349.407 239.86C349.496 239.624 349.535 239.371 349.522 239.118V235.794C349.535 235.542 349.496 235.289 349.407 235.053C349.318 234.816 349.181 234.6 349.004 234.419C348.608 234.074 348.094 233.898 347.569 233.927H330.363V197.57C330.376 197.317 330.337 197.065 330.248 196.828C330.159 196.591 330.022 196.376 329.845 196.194C329.45 195.851 328.937 195.674 328.415 195.702H324.059V195.702ZM359.762 195.702C359.238 195.673 358.723 195.85 358.327 196.194C358.15 196.376 358.013 196.591 357.924 196.828C357.835 197.065 357.796 197.317 357.809 197.57V239.118C357.809 239.632 357.945 240.129 358.327 240.494C358.709 240.859 359.227 240.986 359.758 240.986H364.113C364.644 240.986 365.162 240.859 365.544 240.494C365.72 240.313 365.858 240.097 365.947 239.86C366.036 239.624 366.075 239.371 366.062 239.118V197.57C366.075 197.317 366.036 197.065 365.947 196.828C365.858 196.591 365.72 196.376 365.544 196.194C365.149 195.851 364.636 195.674 364.113 195.702H359.758H359.762ZM219.341 239.598L223.875 212.849L235.129 240.299L235.243 240.405C235.447 240.6 235.693 240.834 235.948 241.016C236.203 241.199 236.559 241.398 236.984 241.398H238.725C239.714 241.398 240.584 240.919 240.673 240.082L251.528 213.6L255.935 239.594C255.956 239.878 256.105 240.103 256.232 240.248C256.67 240.69 257.258 240.953 257.879 240.986H262.239C262.77 240.986 263.288 240.859 263.67 240.494C263.846 240.313 263.984 240.097 264.073 239.86C264.162 239.624 264.201 239.371 264.188 239.118V239.059L255.867 196.432L255.71 196.279C255.502 196.084 255.256 195.846 255.001 195.664C254.704 195.431 254.342 195.298 253.965 195.282H253.095C252.473 195.315 251.886 195.578 251.448 196.02C251.298 196.177 251.197 196.373 251.155 196.585L238.067 227.61L224.469 196.381L224.363 196.279C224.155 196.084 223.913 195.846 223.658 195.664C223.36 195.43 222.996 195.297 222.618 195.282H221.748C221.126 195.315 220.539 195.578 220.101 196.02C219.934 196.194 219.83 196.418 219.803 196.657L211.092 239.055V239.118C211.092 239.628 211.224 240.129 211.606 240.494C211.988 240.859 212.506 240.986 213.041 240.986H217.396C218.018 240.953 218.605 240.69 219.043 240.248C219.213 240.07 219.318 239.839 219.341 239.594V239.598ZM300.256 226.03L290.954 206.876L282.141 226.026H300.256V226.03ZM382.835 195.286C382.311 195.256 381.797 195.431 381.4 195.774C381.224 195.956 381.088 196.172 381 196.408C380.911 196.645 380.873 196.897 380.886 197.15V239.946C380.886 240.46 381.018 240.961 381.4 241.326C381.782 241.687 382.3 241.814 382.835 241.814H387.186C387.721 241.814 388.239 241.687 388.621 241.326C388.798 241.144 388.936 240.928 389.025 240.691C389.114 240.453 389.153 240.2 389.139 239.946V210.883L416.933 242.23H418.971C419.501 242.23 420.024 242.103 420.401 241.738C420.578 241.557 420.715 241.341 420.804 241.104C420.893 240.868 420.933 240.615 420.919 240.362V197.986C420.933 197.733 420.893 197.481 420.804 197.244C420.715 197.007 420.578 196.792 420.401 196.61C420.007 196.267 419.494 196.09 418.971 196.118H414.615C414.092 196.09 413.579 196.267 413.185 196.61C413.008 196.792 412.871 197.007 412.782 197.244C412.693 197.481 412.653 197.733 412.667 197.986V225.835L384.868 195.286H382.831H382.835ZM450.938 206.506L460.464 226.026H441.921L450.938 206.506Z" fill="#EB6C97"></path></g><defs><clipPath id="clip0_112_2"><rect width="450" height="169.811" fill="white" transform="translate(25 165)"></rect></clipPath></defs></svg> 