<svg width="11" height="14" viewBox="0 0 11 14" fill="none" xmlns="http://www.w3.org/2000/svg"><path fill-rule="evenodd" clip-rule="evenodd" d="M6.85527 10.6425C7.03594 10.5709 7.1973 10.4661 7.32861 10.335C7.45991 10.4661 7.62128 10.5709 7.80194 10.6425C7.98261 10.7141 8.17843 10.7507 8.37636 10.75H9.57379V13C9.57382 13.1313 9.54463 13.2614 9.48787 13.3827C9.43112 13.5041 9.34791 13.6143 9.243 13.7072C9.1381 13.8 9.01355 13.8737 8.87648 13.9239C8.73941 13.9742 8.5925 14 8.44414 14H1.12965C0.981292 14 0.83438 13.9742 0.697308 13.9239C0.560236 13.8737 0.435689 13.8 0.330784 13.7072C0.225879 13.6143 0.142671 13.5041 0.0859141 13.3827C0.029157 13.2614 -3.70196e-05 13.1313 4.18814e-08 13V1.00002C-4.03606e-05 0.868684 0.0291514 0.738633 0.0859074 0.617291C0.142663 0.495949 0.225871 0.385696 0.330777 0.292831C0.435683 0.199965 0.56023 0.126307 0.697304 0.076065C0.834378 0.025823 0.981291 -1.82788e-05 1.12965 1.75237e-05L2.35532 0C2.47554 0.212517 2.72302 0.651032 2.84107 0.862516C2.86423 0.903964 2.90006 0.938824 2.9445 0.963133C2.98893 0.987441 3.04018 1.00022 3.09242 1.00002H6.48137C6.5336 1.00022 6.58485 0.987441 6.62929 0.963133C6.67372 0.938824 6.70956 0.903964 6.73272 0.862516L6.93888 0.500017L7.22129 1.75237e-05H8.44414C8.5925 -1.82788e-05 8.73941 0.025823 8.87648 0.076065C9.01356 0.126307 9.1381 0.199965 9.24301 0.292831C9.34792 0.385696 9.43112 0.495949 9.48788 0.617291C9.54464 0.738633 9.57383 0.868684 9.57379 1.00002V3.25001H8.37636C8.17843 3.24932 7.98261 3.28597 7.80195 3.35753C7.62128 3.42909 7.45992 3.53391 7.32861 3.66501C7.1973 3.53391 7.03593 3.42909 6.85527 3.35753C6.6746 3.28597 6.47878 3.24932 6.28086 3.25001H4.50448C4.13002 3.25013 3.77094 3.38187 3.50615 3.61626C3.24137 3.85066 3.09255 4.16853 3.09242 4.50001V6.07251C3.09163 6.24772 3.13304 6.42106 3.21388 6.581C3.29471 6.74093 3.41313 6.88377 3.56122 7.00001C3.41312 7.11625 3.29471 7.25909 3.21387 7.41902C3.13303 7.57895 3.09163 7.7523 3.09242 7.92751V9.50001C3.09255 9.83149 3.24137 10.1494 3.50615 10.3838C3.77094 10.6181 4.13002 10.7499 4.50448 10.75H6.28086C6.47878 10.7507 6.6746 10.7141 6.85527 10.6425ZM3.65724 13H5.91654C5.99072 12.999 6.06148 12.9723 6.11355 12.9255C6.16561 12.8787 6.1948 12.8157 6.1948 12.75C6.1948 12.6843 6.16561 12.6213 6.11355 12.5745C6.06148 12.5277 5.99072 12.501 5.91654 12.5H3.65726C3.58309 12.501 3.51232 12.5277 3.46026 12.5745C3.40819 12.6213 3.379 12.6843 3.379 12.75C3.379 12.8157 3.40818 12.8787 3.46024 12.9255C3.5123 12.9723 3.58307 12.999 3.65724 13ZM6.58869 0L6.30628 0.499999H3.26752L2.98511 0H6.58869ZM8.37629 3.75003H10.1527C10.3772 3.75061 10.5923 3.82981 10.751 3.97034C10.9098 4.11087 10.9992 4.3013 10.9999 4.50003V6.07253C10.9997 6.27137 10.9103 6.46201 10.7515 6.60262C10.5926 6.74323 10.3773 6.82231 10.1527 6.82253H8.37629C8.15179 6.82194 7.93668 6.74274 7.77793 6.60221C7.61919 6.46169 7.52971 6.27126 7.52905 6.07253V4.50003C7.53006 4.37457 7.56491 4.25114 7.63072 4.14003C7.70456 4.02218 7.81258 3.92391 7.94364 3.85535C8.0747 3.78679 8.22406 3.75044 8.37629 3.75003ZM10.5593 7.2675C10.4338 7.2094 10.2944 7.17855 10.1527 7.17749H8.37629C8.15201 7.17868 7.93729 7.25808 7.77869 7.39848C7.6201 7.53887 7.5304 7.72895 7.52905 7.92749V9.5C7.52999 9.66909 7.5951 9.83299 7.71392 9.96538C7.83275 10.0978 7.99839 10.191 8.18425 10.23C8.18566 10.2564 9.14823 10.2524 9.72752 10.2501H9.72756H9.72759H9.72761C9.95935 10.2491 10.1297 10.2484 10.1527 10.25C10.3772 10.2494 10.5923 10.1702 10.751 10.0297C10.9098 9.88918 10.9992 9.69875 10.9999 9.50002V7.9275C10.9995 7.79274 10.9584 7.66053 10.8809 7.54451C10.8035 7.42848 10.6925 7.33286 10.5593 7.2675ZM5.83674 6.82256H5.83674H5.8369C6.07711 6.8216 6.25593 6.82088 6.28082 6.82253C6.43332 6.82181 6.58284 6.78504 6.71392 6.71604C6.845 6.64703 6.95288 6.54829 7.02641 6.43001C7.09193 6.31971 7.12679 6.19715 7.12808 6.07253V4.50003C7.12629 4.3016 7.03645 4.11175 6.87795 3.97144C6.71944 3.83113 6.50497 3.75161 6.28082 3.75003H4.50446C4.27996 3.75061 4.06485 3.82981 3.9061 3.97034C3.74735 4.11087 3.65788 4.3013 3.65723 4.50003V6.07253C3.65826 6.24375 3.7251 6.40957 3.84675 6.5427C3.9684 6.67582 4.13761 6.76833 4.32654 6.80501C4.34469 6.82851 5.26468 6.82484 5.83674 6.82256ZM3.90611 10.0297C3.74736 9.88918 3.65789 9.69875 3.65723 9.50002L3.65723 7.92752C3.65902 7.7291 3.74886 7.53925 3.90736 7.39894C4.06586 7.25864 4.28032 7.17911 4.50446 7.17752H6.28084C6.5051 7.17878 6.71978 7.25821 6.87836 7.39859C7.03695 7.53896 7.12668 7.72899 7.12811 7.92752C7.12087 7.99246 7.1242 8.18072 7.12834 8.41439C7.13753 8.93413 7.1507 9.67851 7.0603 9.79002C6.99566 9.92591 6.8873 10.042 6.74871 10.1238C6.61011 10.2056 6.44741 10.2495 6.28084 10.25H4.50447C4.27997 10.2494 4.06485 10.1702 3.90611 10.0297Z" fill="#b55bef"></path></svg>