<svg xmlns="http://www.w3.org/2000/svg" id="main-icons_cashable" viewBox="0 0 14 14"><path fill-rule="evenodd" d="M.9974 1.9825c0-.5442.4412-.9854.9854-.9854h6.0447c.5442 0 .9854.4412.9854.9854v.5287c0 .5443-.4412.9854-.9854.9854H1.9828c-.5442 0-.9854-.4411-.9854-.9854v-.5287Zm0 2.9923c0-.5443.4412-.9855.9854-.9855h6.0447a.981.981 0 0 1 .5857.193c-1.2553.36-2.3081 1.199-2.9478 2.3066H1.9828c-.5442 0-.9854-.4412-.9854-.9854v-.5287ZM5.411 6.9936H.9854C.4412 6.9936 0 7.4348 0 7.979v.5288c0 .5442.4412.9854.9854.9854H5.025a5.049 5.049 0 0 1-.0258-.5107c0-.7069.147-1.3795.4118-1.9889ZM5.1 9.986H1.9828c-.5442 0-.9854.4412-.9854.9854v.5288c0 .5442.4412.9854.9854.9854h4.4513c-.664-.6744-1.1376-1.5365-1.3341-2.4996ZM9.9921 4.9746c-2.2134 0-4.0077 1.7943-4.0077 4.0077s1.7943 4.0078 4.0077 4.0078 4.0077-1.7944 4.0077-4.0078c0-2.2134-1.7943-4.0077-4.0077-4.0077Zm-.4373 3.3378c0-.123.0997-.2227.2227-.2227h1.0869a.4455.4455 0 0 0 .4453-.4453.4455.4455 0 0 0-.4453-.4453h-.419v-.4453a.4455.4455 0 0 0-.4453-.4453.4455.4455 0 0 0-.4453.4453v.4453c0 .0042.0011.008.0022.0117a.045.045 0 0 1 .0023.0106c-.5095.102-.8951.5522-.8951 1.091 0 .6136.4996 1.1132 1.1133 1.1132h.419c.1229 0 .2226.0998.2226.2423a.2227.2227 0 0 1-.2226.2226h-1.087a.4454.4454 0 0 0-.4453.4453c0 .2458.1995.4453.4453.4453h.4453v.4257c0 .2458.1995.4453.4453.4453a.4455.4455 0 0 0 .4453-.4453v-.4453c0-.002-.0006-.0039-.0011-.0058a.0218.0218 0 0 1-.0011-.0044c.4952-.1131.8665-.5575.8665-1.103 0-.6137-.4996-1.1133-1.1132-1.1133h-.419a.2227.2227 0 0 1-.2227-.2226Z" fill='#108427' clip-rule="evenodd"/></svg>