<svg id="a" height="512" viewBox="0 0 64 64" width="512" xmlns="http://www.w3.org/2000/svg"><path d="m61 32c0 2.133-2.443 3.963-2.896 5.959-.468 2.061.927 4.767.03 6.627-.912 1.89-3.907 2.481-5.203 4.104s-1.217 4.681-2.848 5.983-4.575.539-6.465 1.451c-1.859.897-3.102 3.686-5.163 4.154-1.996.454-4.321-1.51-6.454-1.51s-4.458 1.963-6.454 1.51c-2.061-.468-3.303-3.258-5.163-4.155-1.89-.912-4.842-.155-6.466-1.451s-1.546-4.352-2.848-5.984-4.291-2.214-5.203-4.104c-.897-1.859.498-4.565.03-6.626-.454-1.996-2.896-3.826-2.896-5.96s2.443-3.963 2.896-5.959c.468-2.061-.927-4.767-.03-6.627.912-1.89 3.907-2.481 5.203-4.104s1.217-4.681 2.848-5.983 4.575-.539 6.465-1.451c1.859-.897 3.102-3.686 5.163-4.154 1.996-.454 4.321 1.51 6.454 1.51s4.458-1.963 6.454-1.51c2.061.468 3.303 3.258 5.163 4.155 1.89.912 4.842.155 6.466 1.451s1.546 4.352 2.848 5.984 4.291 2.214 5.203 4.104c.897 1.859-.498 4.565-.03 6.626.454 1.996 2.896 3.826 2.896 5.96z" fill="#faa629"/><circle cx="32" cy="32" fill="#ef5451" r="20"/><g fill="#edeff0"><path d="m33.561 27.697c.553 0 1-.448 1-1s-.447-1-1-1h-5.648c-.552 0-1 .448-1 1v10.605c0 .552.448 1 1 1h5.648c.553 0 1-.448 1-1s-.447-1-1-1h-4.648v-3.303h4.648c.553 0 1-.448 1-1s-.447-1-1-1h-4.648v-3.303h4.648z"/><path d="m23.822 25.697c-.552 0-1 .448-1 1v6.706l-3.946-7.188c-.22-.4-.683-.599-1.125-.487-.442.113-.751.512-.751.969v10.605c0 .552.448 1 1 1s1-.448 1-1v-6.706l3.946 7.188c.219.403.691.6 1.125.487.442-.113.751-.512.751-.969v-10.605c0-.552-.448-1-1-1z"/><path d="m46 25.697c-.553 0-1 .448-1 1v8.021l-2.242-2.463c-.379-.417-1.1-.417-1.479 0l-2.242 2.463v-8.021c0-.552-.447-1-1-1s-1 .448-1 1v10.605c0 .413.254.784.64.933.385.148.821.046 1.1-.26l3.242-3.563 3.242 3.563c.279.307.719.408 1.1.26.386-.149.64-.52.64-.933v-10.605c0-.552-.447-1-1-1z"/></g></svg>