<svg xmlns="http://www.w3.org/2000/svg" id="main-icons_earth" viewBox="0 0 14 14">
            <path d="M13.2161 3.77222L13.1706 3.79234C12.1503 4.24647 11.0907 4.57634 10.0039 4.79334C10.3111 6.25022 10.3102 7.75522 10.0022 9.21122C11.0889 9.42734 12.1538 9.75459 13.1697 10.207L13.2143 10.2271C13.7139 9.26022 14.0001 8.16472 14.0001 7.00009C14.0001 5.83547 13.7139 4.73997 13.2161 3.77222Z" fill='#394762'></path>
            <path d="M5.08887 9.93036C5.47562 11.1615 6.11349 12.3279 6.99899 13.3586C7.88449 12.3279 8.52324 11.1615 8.90912 9.93036C7.64124 9.76236 6.35674 9.76323 5.08887 9.93036Z" fill='#394762'></path>
            <path d="M9.13641 4.92969C8.43292 5.02856 7.72242 5.09594 6.99967 5.09594C6.27605 5.09594 5.56555 5.02769 4.86205 4.92969C4.56718 6.29644 4.56718 7.71044 4.8638 9.07719C6.28042 8.88031 7.71804 8.88031 9.13466 9.07719C9.43129 7.71044 9.43216 6.29644 9.13641 4.92969Z" fill='#394762'></path>
            <path d="M6.99899 0.641357C6.11349 1.67211 5.47562 2.83848 5.08887 4.07048C6.35674 4.23761 7.64212 4.23761 8.90912 4.07048C8.52237 2.83936 7.88449 1.67211 6.99899 0.641357Z" fill='#394762'></path>
            <path d="M7.60278 0C8.63003 1.176 9.36153 2.51737 9.78678 3.934C10.807 3.7345 11.8063 3.43088 12.76 3.01C11.605 1.33088 9.74128 0.18375 7.60278 0Z" fill='#394762'></path>
            <path d="M1.2395 3.01C2.19413 3.43 3.19338 3.7345 4.21275 3.934C4.638 2.51737 5.3695 1.176 6.39675 0C4.25825 0.18375 2.39538 1.33088 1.2395 3.01Z" fill='#394762'></path>
            <path d="M3.99612 4.79407C2.90937 4.5762 1.85062 4.2472 0.83125 3.79307L0.78575 3.77295C0.286125 4.73982 0 5.83532 0 6.99995C0 8.16457 0.286125 9.26007 0.78575 10.2278L0.83125 10.2077C1.84625 9.75445 2.91112 9.4272 3.99787 9.21195C3.689 7.75595 3.689 6.25095 3.99612 4.79407Z" fill='#394762'></path>
            <path d="M4.21275 10.0669C3.1925 10.2655 2.19325 10.57 1.2395 10.99C2.39538 12.6691 4.25825 13.8163 6.39675 14C5.3695 12.824 4.638 11.4826 4.21275 10.0669Z" fill='#394762'></path>
            <path d="M9.78678 10.0659C9.36241 11.4825 8.63003 12.8239 7.60278 13.9999C9.74128 13.8162 11.605 12.669 12.76 10.9899C11.8063 10.569 10.807 10.2654 9.78678 10.0659Z" fill='#394762'></path>
        </svg>