<svg width="100" height="100" viewBox="0 0 100 100" fill="none" xmlns="http://www.w3.org/2000/svg">
<path fill-rule="evenodd" clip-rule="evenodd" d="M53.3372 52.4502L66 43.4376C66 43.4376 67.0898 42.5621 68.75 43.0001C70.4102 43.4381 70.75 44.9376 70.75 44.9376L75.8639 59.6308C76.3205 60.9425 75.8565 62.3983 74.7251 63.2038L62.0667 72.2163C61.2654 72.7869 60.2421 72.9468 59.3049 72.648C58.3677 72.3491 57.6258 71.6264 57.3027 70.6972L52.1985 56.0222C51.7424 54.7108 52.2062 53.2557 53.3372 52.4502ZM66.2229 50.946L58.8713 56.1819L61.8367 64.7078L69.1907 59.4719L66.2229 50.946Z" fill="#FD5000"/>
<path fill-rule="evenodd" clip-rule="evenodd" d="M55.2819 28.9354C55.8082 27.2917 57.5673 26.3859 59.211 26.9121C61.6703 27.6995 63.031 30.3261 62.2556 32.7892C61.7373 34.4354 59.9827 35.3498 58.3364 34.8316C57.1249 34.4502 56.3097 33.3991 56.1703 32.2145C55.283 31.4172 54.8947 30.1451 55.2819 28.9354Z" fill="#FD5000"/>
<path fill-rule="evenodd" clip-rule="evenodd" d="M58.6179 32.9925C59.8003 32.8549 60.851 32.0442 61.2359 30.8362C61.7598 29.1918 60.8515 27.4339 59.2071 26.91C56.7426 26.1248 54.1079 27.4841 53.3196 29.9475C52.7935 31.5912 53.6996 33.3502 55.3433 33.8763C56.5508 34.2627 57.8204 33.8764 58.6179 32.9925Z" fill="#FD5000"/>
<path fill-rule="evenodd" clip-rule="evenodd" d="M59.4003 30.5361C59.2615 29.3574 58.4539 28.3101 57.2501 27.924C55.6066 27.397 53.8471 28.302 53.3201 29.9455C52.9393 31.1328 53.0477 32.4228 53.6213 33.5299C54.1948 34.637 55.1861 35.4697 56.3755 35.8435C58.022 36.361 59.7762 35.4457 60.2937 33.7992C60.6728 32.5932 60.2831 31.3293 59.4003 30.5361Z" fill="#FD5000"/>
<path fill-rule="evenodd" clip-rule="evenodd" d="M60.2275 28.8742C61.8713 29.4002 62.7773 31.1592 62.2513 32.803C61.4629 35.2664 58.8282 36.6257 56.3638 35.8405C54.7193 35.3165 53.811 33.5587 54.335 31.9142C54.7199 30.7063 55.7705 29.8955 56.953 29.7579C57.7504 28.8741 59.02 28.4877 60.2275 28.8742Z" fill="#FD5000"/>
<path fill-rule="evenodd" clip-rule="evenodd" d="M67.7738 81.8349C68.2999 80.1912 70.0589 79.2851 71.7026 79.8112C74.166 80.5995 75.5253 83.2342 74.7401 85.6987C74.2162 87.3431 72.4583 88.2514 70.8139 87.7275C69.606 87.3426 68.7952 86.2919 68.6576 85.1095C67.7737 84.312 67.3874 83.0424 67.7738 81.8349Z" fill="#FD5000"/>
<path fill-rule="evenodd" clip-rule="evenodd" d="M71.1137 85.8915C72.2983 85.752 73.3493 84.9368 73.7307 83.7253C74.249 82.079 73.3346 80.3244 71.6883 79.8061C69.2253 79.0307 66.5986 80.3915 65.8113 82.8507C65.285 84.4944 66.1909 86.2535 67.8346 86.7798C69.0443 87.1671 70.3164 86.7787 71.1137 85.8915Z" fill="#FD5000"/>
<path fill-rule="evenodd" clip-rule="evenodd" d="M71.8926 83.4441C71.755 82.2616 70.9443 81.2109 69.7363 80.8261C68.0919 80.3021 66.3341 81.2104 65.8101 82.8549C65.0249 85.3193 66.3842 87.954 68.8476 88.7424C70.4914 89.2684 72.2504 88.3624 72.7764 86.7186C73.1628 85.5111 72.7765 84.2415 71.8926 83.4441Z" fill="#FD5000"/>
<path fill-rule="evenodd" clip-rule="evenodd" d="M72.7073 81.7709C74.3524 82.2928 75.263 84.0495 74.7411 85.6946C74.3651 86.8799 73.5334 87.8673 72.4292 88.4393C71.325 89.0113 70.0388 89.1211 68.8536 88.7446C67.2087 88.2219 66.299 86.4649 66.8216 84.82C67.2053 83.6123 68.2545 82.8009 69.4362 82.6617C70.2314 81.7768 71.4995 81.3877 72.7073 81.7709Z" fill="#FD5000"/>
<path fill-rule="evenodd" clip-rule="evenodd" d="M36.2 12.459C36.2092 10.7331 37.6157 9.34146 39.3416 9.35063C40.5858 9.35724 41.7764 9.85875 42.6503 10.7445C43.5243 11.6302 44.0099 12.8273 43.9999 14.0715C43.986 15.7974 42.5757 17.1852 40.8498 17.1713C39.5846 17.1612 38.501 16.4004 38.0182 15.3151C36.9394 14.8179 36.1933 13.7242 36.2 12.459Z" fill="#FD5000"/>
<path fill-rule="evenodd" clip-rule="evenodd" d="M40.6094 15.3253C41.6974 14.8341 42.4533 13.7384 42.45 12.4674C42.4454 10.7415 41.0426 9.34605 39.3168 9.3506C36.7474 9.35737 34.6623 11.4313 34.6418 14.0006C34.628 15.7264 36.0158 17.1367 37.7417 17.1505C39.0126 17.1606 40.1125 16.4106 40.6094 15.3253Z" fill="#FD5000"/>
<path fill-rule="evenodd" clip-rule="evenodd" d="M40.6288 12.7585C40.1442 11.6662 39.0516 10.9029 37.7793 10.8994C36.0534 10.8948 34.6505 12.2901 34.6459 14.0159C34.6389 16.5949 36.713 18.6969 39.2919 18.7242C41.0177 18.7425 42.4315 17.3584 42.4498 15.6326C42.4633 14.3603 41.7147 13.2576 40.6288 12.7585Z" fill="#FD5000"/>
<path fill-rule="evenodd" clip-rule="evenodd" d="M40.9082 10.9207C42.6341 10.9299 44.0257 12.3364 44.0165 14.0623C44.0099 15.3055 43.5097 16.4951 42.6259 17.3695C41.7422 18.2439 40.5472 18.7314 39.304 18.7248C37.5782 18.7155 36.1866 17.309 36.1958 15.5831C36.2026 14.3158 36.9628 13.2287 38.0496 12.7442C38.5457 11.6626 39.6409 10.914 40.9082 10.9207Z" fill="#FD5000"/>
<path d="M57.6299 16.6303C52.6967 15.0579 47.4229 17.7822 45.8505 22.7153L34.2041 59.2522C36.057 60.7019 37.7284 62.3728 39.1788 64.2251L51.8053 24.6135C52.3294 22.9691 54.0874 22.061 55.7317 22.5851L91.1906 33.8879C92.8349 34.412 93.743 36.1699 93.2189 37.8143L76.2534 91.0383C75.7293 92.6827 73.9713 93.5908 72.327 93.0666L45.2148 84.4245C45.04 86.5582 44.6333 88.6263 44.0202 90.6035L70.4288 99.0214C75.362 100.594 80.6358 97.8695 82.2082 92.9364L99.1737 39.7124C100.746 34.7793 98.0218 29.5055 93.0887 27.9331L57.6299 16.6303Z" fill="#FD5000"/>
<path d="M71.6084 0.0035551H34.7611C29.5923 -0.0547211 25.2912 3.96666 25.0049 9.13057C25.0017 9.18817 25.0001 9.24586 25.0001 9.30356V54.4238C27.2087 55.1106 29.3038 56.0551 31.2501 57.2222V9.40389C31.3871 7.61251 32.8943 6.22893 34.6991 6.25355H71.5489C73.2651 6.33156 74.6428 7.69967 74.7334 9.41445V26.3577C74.7334 28.0836 76.1326 29.4827 77.8584 29.4827C79.5843 29.4827 80.9834 28.0836 80.9834 26.3577V9.34522C80.9834 9.3055 80.9827 9.26578 80.9812 9.22609C80.7893 4.19614 76.7418 0.170227 71.7109 0.00523427L71.6084 0.0035551Z" fill="#FD5000"/>
<path fill-rule="evenodd" clip-rule="evenodd" d="M0 80.4687C0 69.6819 8.74444 60.9375 19.5312 60.9375C30.3181 60.9375 39.0625 69.6819 39.0625 80.4687C39.0625 91.2556 30.3181 100 19.5312 100C8.74444 100 0 91.2556 0 80.4687ZM19.5312 65.2778C11.1415 65.2778 4.34028 72.079 4.34028 80.4687C4.34028 88.8585 11.1415 95.6597 19.5312 95.6597C27.921 95.6597 34.7222 88.8585 34.7222 80.4687C34.7222 72.079 27.921 65.2778 19.5312 65.2778Z" fill="#FD5000"/>
<path fill-rule="evenodd" clip-rule="evenodd" d="M10.8508 80.4694C10.8508 75.6752 14.7372 71.7888 19.5314 71.7888C24.3255 71.7888 28.2119 75.6752 28.2119 80.4694C28.2119 85.2635 24.3255 89.1499 19.5314 89.1499C14.7372 89.1499 10.8508 85.2635 10.8508 80.4694ZM19.5314 76.1291C17.1343 76.1291 15.1911 78.0723 15.1911 80.4694C15.1911 82.8664 17.1343 84.8097 19.5314 84.8097C21.9285 84.8097 23.8717 82.8664 23.8717 80.4694C23.8717 78.0723 21.9285 76.1291 19.5314 76.1291Z" fill="#FD5000"/>
<path fill-rule="evenodd" clip-rule="evenodd" d="M19.5314 60.9375C20.7299 60.9375 21.7015 61.9091 21.7015 63.1076V73.9583C21.7015 75.1569 20.7299 76.1285 19.5314 76.1285C18.3328 76.1285 17.3612 75.1569 17.3612 73.9583V63.1076C17.3612 61.9091 18.3328 60.9375 19.5314 60.9375Z" fill="#FD5000"/>
<path fill-rule="evenodd" clip-rule="evenodd" d="M36.4453 70.7027C37.0447 71.7406 36.6891 73.0679 35.6512 73.6672L26.256 79.0926C25.2181 79.6919 23.8908 79.3364 23.2914 78.2985C22.6921 77.2606 23.0476 75.9333 24.0855 75.334L33.4808 69.9086C34.5187 69.3093 35.846 69.6648 36.4453 70.7027Z" fill="#FD5000"/>
<path fill-rule="evenodd" clip-rule="evenodd" d="M2.61697 70.7027C3.21632 69.6648 4.54358 69.3093 5.58149 69.9086L14.9767 75.334C16.0147 75.9333 16.3702 77.2606 15.7708 78.2985C15.1715 79.3364 13.8442 79.6919 12.8063 79.0926L3.41106 73.6672C2.37314 73.0679 2.01762 71.7406 2.61697 70.7027Z" fill="#FD5000"/>
<path fill-rule="evenodd" clip-rule="evenodd" d="M19.5314 84.8096C20.7299 84.8096 21.7015 85.7812 21.7015 86.9797V97.8304C21.7015 99.0289 20.7299 100.001 19.5314 100.001C18.3328 100.001 17.3612 99.0289 17.3612 97.8304V86.9797C17.3612 85.7812 18.3328 84.8096 19.5314 84.8096Z" fill="#FD5000"/>
<path fill-rule="evenodd" clip-rule="evenodd" d="M23.2914 82.6397C23.8908 81.6018 25.2181 81.2463 26.256 81.8456L35.6512 87.271C36.6891 87.8703 37.0447 89.1976 36.4453 90.2355C35.846 91.2734 34.5187 91.629 33.4808 91.0296L24.0855 85.6043C23.0476 85.0049 22.6921 83.6776 23.2914 82.6397Z" fill="#FD5000"/>
<path fill-rule="evenodd" clip-rule="evenodd" d="M15.7708 82.6397C16.3702 83.6776 16.0147 85.0049 14.9767 85.6043L5.58149 91.0296C4.54358 91.629 3.21632 91.2734 2.61697 90.2355C2.01762 89.1976 2.37314 87.8703 3.41106 87.271L12.8063 81.8456C13.8442 81.2463 15.1715 81.6018 15.7708 82.6397Z" fill="#FD5000"/>
</svg>
