<svg xmlns="http://www.w3.org/2000/svg" id="main-icons_like" viewBox="0 0 14 14">
            <path d="M1.45832 6.52344C0.6545 6.52344 0 7.17794 0 7.98176V11.6142C0 12.418 0.6545 13.0725 1.45832 13.0725H3.20832C3.53675 13.0725 3.8389 12.9617 4.08332 12.7773V6.52344H1.45832Z" fill='#3fc229'></path>
            <path d="M14.0013 8.31379C14.0013 7.96322 13.8625 7.63654 13.6215 7.39562C13.894 7.09754 14.0328 6.69794 13.9949 6.28204C13.9266 5.54062 13.2587 4.95962 12.4735 4.95962H8.87029C9.04879 4.41769 9.33462 3.42429 9.33462 2.62629C9.33462 1.36104 8.25954 0.292969 7.58462 0.292969C6.97854 0.292969 6.54569 0.634219 6.52704 0.648219C6.45822 0.703645 6.41797 0.787645 6.41797 0.876293V2.85437L4.73797 6.49379L4.66797 6.52937V12.7815C5.14279 13.0055 5.74362 13.1263 6.12629 13.1263H11.4807C12.116 13.1263 12.6719 12.6981 12.8025 12.1072C12.8696 11.8033 12.8305 11.497 12.697 11.231C13.128 11.014 13.418 10.5701 13.418 10.0638C13.418 9.85729 13.3707 9.65954 13.2809 9.48047C13.712 9.26347 14.0013 8.81954 14.0013 8.31379Z" fill='#3fc229'></path>
        </svg>