<?xml version="1.0" encoding="utf-8"?>
<svg xmlns="http://www.w3.org/2000/svg" fill="none" height="100" viewBox="0 0 100 100" width="100">
<path clip-rule="evenodd" d="M7.55059 72.0605C-1.89123 49.0575 9.10235 22.7557 32.1054 13.3139C55.1085 3.87204 81.4103 14.8656 90.8521 37.8687C100.294 60.8718 89.3004 87.1736 66.2973 96.6154C43.2942 106.057 16.9924 95.0636 7.55059 72.0605ZM34.2424 18.5202C14.1147 26.7818 4.49535 49.7959 12.7569 69.9235C21.0185 90.0512 44.0326 99.6706 64.1603 91.409C84.288 83.1474 93.9074 60.1334 85.6458 40.0057C77.3842 19.878 54.3701 10.2586 34.2424 18.5202Z" fill="#FD5000" fill-rule="evenodd"/>
<path clip-rule="evenodd" d="M20.5667 66.7177C14.0755 50.903 21.6335 32.8206 37.4482 26.3293C53.2628 19.8381 71.3453 27.3961 77.8365 43.2108C84.3278 59.0254 76.7697 77.1079 60.9551 83.5991C45.1404 90.0904 27.058 82.5323 20.5667 66.7177ZM39.5852 31.5357C26.6459 36.8467 20.462 51.6414 25.7731 64.5807C31.0841 77.5199 45.8788 83.7038 58.8181 78.3928C71.7573 73.0817 77.9412 58.287 72.6302 45.3478C67.3191 32.4085 52.5244 26.2246 39.5852 31.5357Z" fill="#FD5000" fill-rule="evenodd"/>
<path clip-rule="evenodd" d="M33.5823 61.3751C30.0416 52.749 34.1642 42.8858 42.7904 39.3451C51.4165 35.8044 61.2797 39.927 64.8204 48.5532C68.3611 57.1793 64.2385 67.0425 55.6123 70.5832C46.9862 74.1239 37.123 70.0013 33.5823 61.3751ZM44.9274 44.5515C39.1766 46.9119 36.4282 53.4874 38.7887 59.2381C41.1491 64.9889 47.7246 67.7373 53.4753 65.3769C59.2261 63.0164 61.9745 56.441 59.6141 50.6902C57.2536 44.9394 50.6782 42.191 44.9274 44.5515Z" fill="#FD5000" fill-rule="evenodd"/>
<path clip-rule="evenodd" d="M32.1055 13.3141C33.5432 12.724 35.187 13.4111 35.7772 14.8488L41.1196 27.8646C41.7097 29.3023 41.0227 30.9462 39.585 31.5363C38.1473 32.1264 36.5034 31.4393 35.9133 30.0016L30.5708 16.9857C29.9807 15.548 30.6678 13.9042 32.1055 13.3141Z" fill="#FD5000" fill-rule="evenodd"/>
<path clip-rule="evenodd" d="M66.5642 13.4239C67.9981 14.0232 68.6746 15.6715 68.0753 17.1053L62.6486 30.0883C62.0493 31.5222 60.4011 32.1988 58.9672 31.5994C57.5333 31.0001 56.8568 29.3519 57.4561 27.918L62.8827 14.935C63.4821 13.5011 65.1303 12.8246 66.5642 13.4239Z" fill="#FD5000" fill-rule="evenodd"/>
<path clip-rule="evenodd" d="M72.63 45.3485C72.0398 43.9108 72.7269 42.267 74.1646 41.6769L87.1805 36.3344C88.6182 35.7443 90.2621 36.4314 90.8522 37.8691C91.4423 39.3068 90.7552 40.9506 89.3175 41.5407L76.3016 46.8832C74.8639 47.4733 73.2201 46.7862 72.63 45.3485Z" fill="#FD5000" fill-rule="evenodd"/>
<path clip-rule="evenodd" d="M72.5663 64.7298C73.1657 63.2959 74.8139 62.6194 76.2478 63.2187L89.2308 68.6453C90.6647 69.2446 91.3412 70.8929 90.7419 72.3268C90.1426 73.7606 88.4943 74.4372 87.0604 73.8378L74.0774 68.4112C72.6435 67.8119 71.967 66.1636 72.5663 64.7298Z" fill="#FD5000" fill-rule="evenodd"/>
<path clip-rule="evenodd" d="M58.8179 78.3924C60.2556 77.8023 61.8994 78.4894 62.4896 79.9271L67.832 92.943C68.4222 94.3807 67.7351 96.0245 66.2974 96.6147C64.8597 97.2048 63.2158 96.5177 62.6257 95.08L57.2832 82.0641C56.6931 80.6264 57.3802 78.9826 58.8179 78.3924Z" fill="#FD5000" fill-rule="evenodd"/>
<path clip-rule="evenodd" d="M39.4352 78.3292C40.8691 78.9285 41.5456 80.5767 40.9463 82.0106L35.5197 94.9936C34.9204 96.4275 33.2721 97.104 31.8382 96.5047C30.4044 95.9054 29.7278 94.2571 30.3272 92.8233L35.7538 79.8402C36.3531 78.4064 38.0013 77.7298 39.4352 78.3292Z" fill="#FD5000" fill-rule="evenodd"/>
<path clip-rule="evenodd" d="M7.5508 72.0597C6.96068 70.622 7.64778 68.9782 9.08547 68.388L22.1013 63.0456C23.539 62.4555 25.1829 63.1426 25.773 64.5802C26.3631 66.0179 25.676 67.6618 24.2383 68.2519L11.2225 73.5944C9.78477 74.1845 8.14091 73.4974 7.5508 72.0597Z" fill="#FD5000" fill-rule="evenodd"/>
<path clip-rule="evenodd" d="M7.66098 37.6009C8.26031 36.167 9.90854 35.4905 11.3424 36.0898L24.3254 41.5164C25.7593 42.1157 26.4358 43.764 25.8365 45.1978C25.2372 46.6317 23.589 47.3083 22.1551 46.7089L9.17206 41.2823C7.73818 40.683 7.06165 39.0347 7.66098 37.6009Z" fill="#FD5000" fill-rule="evenodd"/>
<path clip-rule="evenodd" d="M49.193 24.012C50.7471 24.0115 52.0073 25.2709 52.0078 26.825L52.0123 40.8963C52.0128 42.4504 50.7533 43.7106 49.1993 43.7111C47.6452 43.7116 46.3849 42.4522 46.3844 40.8981L46.3799 26.8268C46.3794 25.2727 47.6389 24.0125 49.193 24.012Z" fill="#FD5000" fill-rule="evenodd"/>
<path clip-rule="evenodd" d="M71.0823 33.0724C72.1816 34.171 72.1821 35.9527 71.0835 37.0519L61.1392 47.0022C60.0406 48.1014 58.2589 48.102 57.1597 47.0034C56.0605 45.9048 56.0599 44.1231 57.1585 43.0239L67.1028 33.0736C68.2014 31.9744 69.9831 31.9738 71.0823 33.0724Z" fill="#FD5000" fill-rule="evenodd"/>
<path clip-rule="evenodd" d="M60.4555 54.9627C60.455 53.4086 61.7144 52.1484 63.2685 52.1479L77.3398 52.1434C78.8939 52.1429 80.1542 53.4024 80.1547 54.9565C80.1552 56.5105 78.8957 57.7708 77.3416 57.7713L63.2703 57.7758C61.7162 57.7763 60.456 56.5168 60.4555 54.9627Z" fill="#FD5000" fill-rule="evenodd"/>
<path clip-rule="evenodd" d="M57.1626 62.9231C58.2612 61.8239 60.0429 61.8234 61.1421 62.9219L71.0924 72.8663C72.1916 73.9649 72.1921 75.7465 71.0936 76.8458C69.995 77.945 68.2133 77.9455 67.1141 76.847L57.1638 66.9026C56.0646 65.804 56.064 64.0224 57.1626 62.9231Z" fill="#FD5000" fill-rule="evenodd"/>
<path clip-rule="evenodd" d="M49.2035 66.2183C50.7576 66.2178 52.0179 67.4772 52.0184 69.0313L52.0228 83.1026C52.0233 84.6567 50.7639 85.9169 49.2098 85.9174C47.6557 85.9179 46.3955 84.6585 46.395 83.1044L46.3905 69.0331C46.39 67.479 47.6494 66.2188 49.2035 66.2183Z" fill="#FD5000" fill-rule="evenodd"/>
<path clip-rule="evenodd" d="M41.2428 62.9266C42.342 64.0252 42.3425 65.8069 41.244 66.9061L31.2996 76.8564C30.201 77.9557 28.4194 77.9562 27.3201 76.8576C26.2209 75.759 26.2204 73.9774 27.3189 72.8781L37.2633 62.9278C38.3619 61.8286 40.1435 61.8281 41.2428 62.9266Z" fill="#FD5000" fill-rule="evenodd"/>
<path clip-rule="evenodd" d="M18.2484 54.9737C18.2479 53.4196 19.5073 52.1594 21.0614 52.1589L35.1327 52.1544C36.6868 52.1539 37.9471 53.4134 37.9476 54.9674C37.9481 56.5215 36.6886 57.7818 35.1345 57.7823L21.0632 57.7868C19.5091 57.7872 18.2489 56.5278 18.2484 54.9737Z" fill="#FD5000" fill-rule="evenodd"/>
<path clip-rule="evenodd" d="M27.309 33.0828C28.4076 31.9836 30.1893 31.983 31.2885 33.0816L41.2388 43.0259C42.3381 44.1245 42.3386 45.9062 41.24 47.0054C40.1414 48.1047 38.3597 48.1052 37.2605 47.0066L27.3102 37.0623C26.211 35.9637 26.2105 34.182 27.309 33.0828Z" fill="#FD5000" fill-rule="evenodd"/>
<path d="M49.2014 28.7013L37.9457 2.43799H60.4571L49.2014 28.7013Z" fill="#EEF1F4"/>
<path clip-rule="evenodd" d="M35.9097 1.09575C36.3609 0.411373 37.1258 -0.000488281 37.9456 -0.000488281H60.457C61.2768 -0.000488281 62.0417 0.411373 62.493 1.09575C62.9443 1.78012 63.0215 2.64543 62.6986 3.39891L51.4429 29.6622C51.0586 30.5589 50.1769 31.1403 49.2013 31.1403C48.2258 31.1403 47.3441 30.5589 46.9598 29.6622L35.7041 3.39891C35.3811 2.64543 35.4584 1.78012 35.9097 1.09575ZM41.6441 4.87699L49.2013 22.5106L56.7586 4.87699H41.6441Z" fill="#FD5000" fill-rule="evenodd"/>
</svg>