<?xml version="1.0" encoding="UTF-8"?> <svg xmlns="http://www.w3.org/2000/svg" id="Capa_1" height="512" viewBox="0 0 512 512" width="512"><g><g><path d="m400.503 184.531c13.626 22.236 26.06 46.639 31.99 71.811 2.146 9.108 3.44 18.317 3.631 27.56.094 4.56 6.38 5.579 7.929 1.289 11.156-30.893 12.333-64.435 4.252-96.764-12.82-51.288-44.372-87.244-79.292-124.749-9.721-10.44-23.299-23.35-30.805-37.596-1.951-3.703-7.541-2.434-7.692 1.749-.399 11.035 1.19 21.669 4.125 32.109 5.434 19.331 15.484 37.994 26.072 57.297 15.376 28.035 23.166 40.153 39.79 67.294z" fill="#ffd250"></path><path d="m444.054 285.192c-1.546 4.286-7.841 3.266-7.934-1.288-.196-9.222-1.483-18.425-3.616-27.513 1.721-18.877.153-38.082-4.555-56.886-12.818-51.292-44.368-87.243-79.288-124.749-4.224-4.544-9.181-9.559-14.055-14.938-2.916-10.397-4.482-20.992-4.09-31.986.154-4.183 5.739-5.451 7.687-1.752 7.512 14.25 21.092 27.161 30.808 37.599 34.92 37.506 66.47 73.456 79.299 124.749 8.078 32.334 6.903 65.873-4.256 96.764z" fill="#ffc433"></path><path d="m116.061 111.225c-8.534 11.577-13.434 15.522-21.072 27.708-5.899 9.412-12.326 27.34-11.145 40.442.214 2.374-2.824 3.572-4.313 1.711-7.771-9.715-14.495-21.932-17.964-32.698-.012-.036-.023-.073-.035-.109-4.539-14.165-4.291-30.156 2.392-43.445 8.54-16.982 25.852-27.335 41.346-38.346.756-.537 1.512-1.083 2.266-1.637 10.546-7.745 20.797-17.155 26.306-28.501 1.146-2.359 4.678-1.507 4.617 1.115-.603 25.547-8.403 54.775-22.398 73.76z" fill="#ffd250"></path><path d="m138.462 37.466c-.608 25.543-8.408 54.775-22.401 73.755-8.532 11.582-13.436 15.528-21.071 27.718-5.904 9.407-12.323 27.336-11.149 40.432.216 2.38-2.823 3.576-4.307 1.711-7.769-9.706-14.494-21.889-17.956-32.657 1.999-5.605 4.448-10.712 6.797-14.452 7.635-12.19 12.54-16.136 21.071-27.707 8.243-11.19 14.334-25.948 18.074-41.404 10.541-7.759 20.812-17.152 26.315-28.507 1.155-2.361 4.689-1.516 4.627 1.111z" fill="#ffc433"></path><path d="m363.298 232.008c13.789 27.788 22.857 57.521 24.559 89.08 2.413 44.76-8.133 91.367-34.994 127.839-18.136 24.626-43.262 43.214-71.991 53.653-18.601 6.759-37.167 8.75-56.737 9.328-.412.012-.824.024-1.237.035-93.465 2.481-171.152-76.845-163.977-179.129 2.495-35.565 12.465-70.734 27.485-102.422 1.947-4.107 6.903-5.844 10.965-3.805 11.23 5.637 31.015 21.244 32.81 61.615 1.283 28.777 12.94 50.982 36.247 59.646 9.886 3.675 19.449-6.023 15.475-15.793-19.29-47.417-54.877-173.173 41.519-299.363 7.681-10.055 16.199-20.112 25.631-30.133 4.783-5.082 13.334-2.135 14.016 4.811 2.226 22.688 10.073 51.677 14.797 69.185 3.889 14.412 9.034 28.481 15.251 42.052 18.581 40.562 50.35 73.438 70.181 113.401z" fill="#ff982a"></path><path d="m352.865 448.93c-18.135 24.626-43.266 43.214-71.993 53.652-18.588 6.759-37.151 8.749-56.708 9.326 4.699-1.144 9.382-2.546 14.06-4.246 28.727-10.438 53.858-29.026 71.993-53.652 26.862-36.465 37.403-83.08 34.992-127.84-1.7-31.561-10.768-61.287-24.554-89.077-19.835-39.969-51.602-72.838-70.18-113.404-6.224-13.57-11.365-27.635-15.26-42.05-3.39-12.591-8.415-31.112-11.784-48.958 7.666-10.057 16.194-20.109 25.622-30.124 4.781-5.08 13.333-2.133 14.013 4.812 2.226 22.689 10.077 51.684 14.796 69.191 3.895 14.405 9.036 28.48 15.25 42.05 18.588 40.556 50.355 73.436 70.19 113.404 13.787 27.779 22.854 57.516 24.554 89.077 2.412 44.759-8.129 91.363-34.991 127.839z" fill="#ff8700"></path><path d="m184.573 466.06c-.551-.273-1.097-.552-1.638-.834-17.194-8.998-28.831-22.721-36.583-40.666-5.709-13.216-8.045-27.976-6.666-42.328.171-1.779 2.345-2.537 3.618-1.284 4.164 4.099 8.671 7.9 13.281 11.44 15.541 11.931 37.158 20.514 55.464 9.336 17.567-10.726 24.663-34.911 27.617-53.973 1.031-6.651 1.327-13.47 1.342-20.298.011-5.172-.139-10.349-.254-15.461-.037-1.64 1.737-2.686 3.159-1.869 26.157 15.04 52.495 30.263 60.233 62.072 13.475 55.391-33.212 106.291-89.315 102.124-10.5-.781-20.82-3.579-30.258-8.259z" fill="#ffd250"></path><path d="m214.834 474.319c-10.5-.783-20.824-3.575-30.262-8.264-.546-.268-1.088-.545-1.624-.823.031-.001.062-.003.093-.004 51.444-2.176 91.868-50.239 79.222-102.273-3.637-14.93-11.361-26.194-21.253-35.519.01-5.162-.138-10.333-.251-15.444-.041-1.638 1.731-2.689 3.153-1.865 26.161 15.033 52.498 30.262 60.236 62.07 13.478 55.383-33.209 106.284-89.314 102.122z" fill="#ffc433"></path></g><g fill="#ff982a"><path d="m313.754 89.509c2.03 0 4.028-.824 5.461-2.267 1.798-1.798 2.633-4.477 2.112-6.975-.747-3.58-3.913-6.214-7.573-6.214-4.254 0-7.728 3.496-7.728 7.728 0 4.248 3.438 7.728 7.728 7.728z"></path><path d="m397.759 41.97c2.03 0 4.028-.824 5.461-2.267 1.798-1.798 2.633-4.477 2.112-6.975-.747-3.58-3.913-6.214-7.573-6.214-4.254 0-7.728 3.496-7.728 7.728 0 4.248 3.438 7.728 7.728 7.728z"></path><path d="m427.282 71.953c2.03 0 4.028-.824 5.461-2.267 1.798-1.798 2.633-4.477 2.112-6.975-.747-3.58-3.913-6.214-7.573-6.214-4.254 0-7.728 3.496-7.728 7.728 0 4.248 3.438 7.728 7.728 7.728z"></path><path d="m138.459 154.577c2.03 0 4.028-.824 5.461-2.267 1.798-1.798 2.633-4.477 2.112-6.975-.747-3.58-3.913-6.214-7.573-6.214-4.254 0-7.728 3.496-7.728 7.728 0 4.249 3.438 7.728 7.728 7.728z"></path><path d="m123.772 177.37c-4.254 0-7.728 3.496-7.728 7.728 0 4.249 3.438 7.728 7.728 7.728 2.03 0 4.028-.824 5.461-2.267 1.798-1.798 2.633-4.477 2.112-6.975-.747-3.581-3.914-6.214-7.573-6.214z"></path><path d="m92.097 37.735c2.03 0 4.028-.824 5.461-2.267 1.798-1.798 2.633-4.477 2.112-6.975-.747-3.58-3.913-6.214-7.573-6.214-4.254 0-7.728 3.496-7.728 7.728 0 4.249 3.438 7.728 7.728 7.728z"></path></g></g></svg> 