<?xml version="1.0" encoding="utf-8"?>
<svg xmlns="http://www.w3.org/2000/svg" fill="none" height="100" viewBox="0 0 100 100" width="100">
<path clip-rule="evenodd" d="M0 28.125C0 22.9473 4.19733 18.75 9.375 18.75H71.875C77.0527 18.75 81.25 22.9473 81.25 28.125V90.625C81.25 95.8027 77.0527 100 71.875 100H9.375C4.19733 100 0 95.8027 0 90.625V28.125ZM9.375 25C7.64911 25 6.25 26.3991 6.25 28.125V90.625C6.25 92.3509 7.64911 93.75 9.375 93.75H71.875C73.6009 93.75 75 92.3509 75 90.625V28.125C75 26.3991 73.6009 25 71.875 25H9.375Z" fill="#FD5000" fill-rule="evenodd"/>
<path clip-rule="evenodd" d="M0 34.375C0 32.6491 1.39911 31.25 3.125 31.25H78.125C79.8509 31.25 81.25 32.6491 81.25 34.375C81.25 36.1009 79.8509 37.5 78.125 37.5H3.125C1.39911 37.5 0 36.1009 0 34.375Z" fill="#FD5000" fill-rule="evenodd"/>
<path clip-rule="evenodd" d="M0 65.625C0 63.8991 1.39911 62.5 3.125 62.5H78.125C79.8509 62.5 81.25 63.8991 81.25 65.625C81.25 67.3509 79.8509 68.75 78.125 68.75H3.125C1.39911 68.75 0 67.3509 0 65.625Z" fill="#FD5000" fill-rule="evenodd"/>
<path clip-rule="evenodd" d="M18.75 68.75C17.8871 68.75 17.1875 67.3509 17.1875 65.625L17.1875 34.375C17.1875 32.6491 17.8871 31.25 18.75 31.25C19.6129 31.25 20.3125 32.6491 20.3125 34.375L20.3125 65.625C20.3125 67.3509 19.6129 68.75 18.75 68.75Z" fill="#FD5000" fill-rule="evenodd"/>
<path clip-rule="evenodd" d="M48.4375 31.25C49.3004 31.25 50 32.6491 50 34.375V65.625C50 67.3509 49.3004 68.75 48.4375 68.75C47.5746 68.75 46.875 67.3509 46.875 65.625V34.375C46.875 32.6491 47.5746 31.25 48.4375 31.25Z" fill="#FD5000" fill-rule="evenodd"/>
<path clip-rule="evenodd" d="M62.5 31.25C63.3629 31.25 64.0625 32.6491 64.0625 34.375V65.625C64.0625 67.3509 63.3629 68.75 62.5 68.75C61.6371 68.75 60.9375 67.3509 60.9375 65.625V34.375C60.9375 32.6491 61.6371 31.25 62.5 31.25Z" fill="#FD5000" fill-rule="evenodd"/>
<path clip-rule="evenodd" d="M32.8125 31.25C33.6754 31.25 34.375 32.6491 34.375 34.375V65.625C34.375 67.3509 33.6754 68.75 32.8125 68.75C31.9496 68.75 31.25 67.3509 31.25 65.625V34.375C31.25 32.6491 31.9496 31.25 32.8125 31.25Z" fill="#FD5000" fill-rule="evenodd"/>
<path clip-rule="evenodd" d="M19.1073 5.49795C24.7629 2.03988 32.3781 0 40.625 0C48.8719 0 56.4871 2.03988 62.1427 5.49795C67.7436 8.92258 71.875 14.0716 71.875 20.3125V21.875C71.875 23.6009 70.4759 25 68.75 25C67.0241 25 65.625 23.6009 65.625 21.875V20.3125C65.625 17.0742 63.4606 13.6295 58.8823 10.8302C54.3588 8.06428 47.9115 6.25 40.625 6.25C33.3385 6.25 26.8912 8.06428 22.3677 10.8302C17.7894 13.6295 15.625 17.0742 15.625 20.3125V21.875C15.625 23.6009 14.2259 25 12.5 25C10.7741 25 9.375 23.6009 9.375 21.875V20.3125C9.375 14.0716 13.5064 8.92258 19.1073 5.49795Z" fill="#FD5000" fill-rule="evenodd"/>
<path clip-rule="evenodd" d="M12.5 84.375C12.5 82.6491 13.8991 81.25 15.625 81.25H28.125C29.8509 81.25 31.25 82.6491 31.25 84.375C31.25 86.1009 29.8509 87.5 28.125 87.5H15.625C13.8991 87.5 12.5 86.1009 12.5 84.375Z" fill="#FD5000" fill-rule="evenodd"/>
<path clip-rule="evenodd" d="M90.625 46.875C92.3509 46.875 93.75 48.2741 93.75 50V71.875C93.75 80.5045 86.7544 87.5 78.125 87.5C76.3991 87.5 75 86.1009 75 84.375C75 82.6491 76.3991 81.25 78.125 81.25C83.3027 81.25 87.5 77.0527 87.5 71.875V50C87.5 48.2741 88.8991 46.875 90.625 46.875Z" fill="#FD5000" fill-rule="evenodd"/>
<path clip-rule="evenodd" d="M81.25 43.75C81.25 38.5723 85.4473 34.375 90.625 34.375C95.8027 34.375 100 38.5723 100 43.75C100 48.9277 95.8027 53.125 90.625 53.125C85.4473 53.125 81.25 48.9277 81.25 43.75ZM90.625 40.625C88.8991 40.625 87.5 42.0241 87.5 43.75C87.5 45.4759 88.8991 46.875 90.625 46.875C92.3509 46.875 93.75 45.4759 93.75 43.75C93.75 42.0241 92.3509 40.625 90.625 40.625Z" fill="#FD5000" fill-rule="evenodd"/>
<circle cx="40.625" cy="49.2188" fill="#FD5000" r="2.34375"/>
<circle cx="55.4688" cy="49.2188" fill="#FD5000" r="2.34375"/>
<circle cx="69.5312" cy="49.2188" fill="#FD5000" r="2.34375"/>
<circle cx="11.7188" cy="49.2188" fill="#FD5000" r="2.34375"/>
<circle cx="25.7812" cy="49.2188" fill="#FD5000" r="2.34375"/>
</svg>