<?xml version="1.0" encoding="utf-8"?>
<!-- Svg Vector Icons : http://www.onlinewebfonts.com/icon -->
<!DOCTYPE svg PUBLIC "-//W3C//DTD SVG 1.1//EN" "http://www.w3.org/Graphics/SVG/1.1/DTD/svg11.dtd">
<svg version="1.1" xmlns="http://www.w3.org/2000/svg" xmlns:xlink="http://www.w3.org/1999/xlink" x="0px" y="0px" viewBox="0 0 256 256" enable-background="new 0 0 256 256" xml:space="preserve">
<metadata> Svg Vector Icons : http://www.onlinewebfonts.com/icon </metadata>
<g><g><g><path fill="rgba(34, 117, 65, .8)" d="M120.4,10.1c-18.2,1.8-30.2,5-44.3,12c-24,11.8-42.1,30-54,54c-12.9,26.4-15.6,55.8-7.6,84.2c9,32.1,31.3,58.7,61.5,73.6c33.9,16.6,73,16.2,106.4-1.2c28.9-15,50.3-41.4,59-72.4c10.5-37.2,2.5-76.4-21.8-106.6c-18.5-23-45.6-38.3-75.7-42.7C139.1,10.3,124.1,9.7,120.4,10.1z M180,70.2c5.9,3.6,6.2,12.2,0.5,15.9l-2,1.3l4.2,0.2c5,0.3,7.1,1.3,9.8,4.3c4.8,5.4,4.4,12.5-0.7,17.6c-1.5,1.5-3.1,2.7-3.5,2.7c-0.5,0,0.3,0.7,1.8,1.6c6.3,3.7,8.5,12,4.9,17.9c-1.4,2.3-4.5,4.9-6.5,5.6l-1.8,0.6l2,1c8.1,4,9.5,15.8,2.7,22.1c-4,3.7-3.2,3.6-27.5,3.9c-23.9,0.3-23.3,0.2-23.3,3.3c0,0.9,1.7,6.8,3.7,13c6.7,20.6,7.6,29.1,3.6,37.2c-2.5,5.2-8.7,9.4-12.9,8.9c-3.9-0.5-4.7-2.1-7.5-15.9c-3-14.3-4-16.5-11.7-25.7c-4.5-5.4-7.9-10.2-12.9-18.8c-6.9-11.7-13.6-19.8-18.2-22.1c-2.5-1.2-3.2-1.3-12.4-1.6c-10.3-0.3-11.3-0.6-12.4-2.9c-0.4-0.8-0.5-11-0.5-31.6c0-29.1,0-30.5,0.9-31.6c0.9-1.1,1.3-1.2,9.2-1.5c10.7-0.4,16.5-1.1,25.3-2.9c8.5-1.7,15.9-2.7,25.6-3.4c10.9-0.8,13.4-0.8,36.3-0.8l21.2,0.1L180,70.2z"/></g></g></g>
</svg>