<svg xmlns="http://www.w3.org/2000/svg" width="16" height="17" viewBox="0 0 16 17" fill="none">
    <path fill-rule="evenodd" clip-rule="evenodd" d="M15.5209 10.9815L10.2323 16.5C9.35085 15.8677 7.9712 14.9288 8.02869 14.8904C9.46582 13.7599 10.079 13.2617 11.3437 11.9012C12.091 11.0773 12.5892 10.4258 13.3365 9.46768C13.3365 9.46768 15.0802 10.694 15.5209 10.9815Z" fill="#EC1C00"/>
    <path fill-rule="evenodd" clip-rule="evenodd" d="M13.3173 9.41019C13.0874 8.41378 9.52332 6.61259 8.98679 5.96109C7.12811 3.7575 8.41194 1.76468 8.27781 0.979056C8.27781 0.710792 8.04787 0.538337 7.72212 0.500014C6.66823 0.404206 4.29218 1.84133 5.95925 7.09163C5.2311 7.8581 2.72092 7.64732 1.11134 7.80061C0.402359 7.87726 0.364035 8.98863 0.651461 9.48684C0.938886 10.0042 1.45625 9.98504 1.18799 10.1575C0.670622 10.4641 0.977209 11.4413 1.24547 11.8629C1.39877 12.112 2.16523 11.997 1.59038 12.3419C1.16883 12.6102 1.57122 13.415 1.83948 13.6258C2.10775 13.8174 2.45266 13.8557 2.29937 13.9515C1.93529 14.2389 2.22272 14.8904 2.54847 15.0629C3.02751 15.312 4.36883 14.8713 4.88619 14.9671C6.39996 15.2162 6.55326 15.791 8.10535 14.7371C10.4431 13.1467 13.2982 9.44851 13.3173 9.41019Z" fill="#EC1C00"/>
</svg>