<svg xmlns="http://www.w3.org/2000/svg" id="main-icons_user" viewBox="0 0 18 18"><path d="M8.8717 8.6707c1.1912 0 2.2227-.4273 3.0655-1.2702.8428-.8428 1.27-1.874 1.27-3.0653 0-1.191-.4272-2.2223-1.2702-3.0653C11.0941.4272 10.0628 0 8.8717 0 7.6804 0 6.6492.4272 5.8064 1.27S4.5362 3.1441 4.5362 4.3352c0 1.1913.4274 2.2226 1.2703 3.0654.843.8427 1.8743 1.27 3.0652 1.27ZM16.4576 13.8412c-.0243-.3507-.0735-.7333-.1458-1.1373-.0731-.4071-.1672-.7919-.2798-1.1436a5.6445 5.6445 0 0 0-.4701-1.0665c-.2029-.357-.4413-.668-.7088-.9238-.2798-.2676-.6223-.4828-1.0183-.6398-.3947-.1561-.8321-.2352-1.3-.2352-.1837 0-.3614.0754-.7046.2988a96.091 96.091 0 0 1-.734.4732c-.2358.1503-.5553.291-.9498.4185-.385.1245-.7758.1877-1.1615.1877-.3858 0-.7765-.0632-1.1618-.1877-.3942-.1273-.7136-.2681-.9491-.4183a100.5505 100.5505 0 0 1-.7347-.4735c-.3428-.2235-.5206-.2989-.7044-.2989-.468 0-.9052.0793-1.2998.2355-.3958.1567-.7384.372-1.0184.6399-.2674.256-.506.5667-.7086.9236a5.6588 5.6588 0 0 0-.4701 1.0667c-.1125.3517-.2066.7363-.2796 1.1434-.0724.4034-.1216.7862-.1459 1.1377-.0238.3444-.036.7019-.036 1.0629 0 .9396.2988 1.7003.8878 2.2613.5817.5536 1.3514.8344 2.2874.8344h8.6671c.936 0 1.7055-.2807 2.2874-.8344.5891-.5606.8878-1.3214.8878-2.2614a15.3574 15.3574 0 0 0-.0364-1.0632Z" fill='#fff'/></svg>