<?xml version="1.0" encoding="utf-8"?>
<svg xmlns="http://www.w3.org/2000/svg" fill="none" height="100" viewBox="0 0 100 100" width="100">
<path clip-rule="evenodd" d="M43.75 71.875C43.75 56.342 56.342 43.75 71.875 43.75C87.408 43.75 100 56.342 100 71.875C100 87.408 87.408 100 71.875 100C56.342 100 43.75 87.408 43.75 71.875ZM71.875 50C59.7938 50 50 59.7938 50 71.875C50 83.9562 59.7938 93.75 71.875 93.75C83.9562 93.75 93.75 83.9562 93.75 71.875C93.75 59.7938 83.9562 50 71.875 50Z" fill="#FD5000" fill-rule="evenodd"/>
<path clip-rule="evenodd" d="M59.375 71.875C59.375 64.9714 64.9714 59.375 71.875 59.375C78.7786 59.375 84.375 64.9714 84.375 71.875C84.375 78.7786 78.7786 84.375 71.875 84.375C64.9714 84.375 59.375 78.7786 59.375 71.875ZM71.875 65.625C68.4232 65.625 65.625 68.4232 65.625 71.875C65.625 75.3268 68.4232 78.125 71.875 78.125C75.3268 78.125 78.125 75.3268 78.125 71.875C78.125 68.4232 75.3268 65.625 71.875 65.625Z" fill="#FD5000" fill-rule="evenodd"/>
<path clip-rule="evenodd" d="M71.875 43.75C73.6009 43.75 75 45.1491 75 46.875V62.5C75 64.2259 73.6009 65.625 71.875 65.625C70.1491 65.625 68.75 64.2259 68.75 62.5V46.875C68.75 45.1491 70.1491 43.75 71.875 43.75Z" fill="#FD5000" fill-rule="evenodd"/>
<path clip-rule="evenodd" d="M96.2312 57.8123C97.0943 59.3069 96.5823 61.2182 95.0877 62.0812L81.5585 69.8937C80.0639 70.7568 78.1527 70.2448 77.2896 68.7502C76.4266 67.2557 76.9385 65.3444 78.4331 64.4813L91.9623 56.6688C93.4569 55.8058 95.3681 56.3177 96.2312 57.8123Z" fill="#FD5000" fill-rule="evenodd"/>
<path clip-rule="evenodd" d="M47.5188 57.8123C48.3819 56.3177 50.2931 55.8058 51.7877 56.6688L65.3169 64.4813C66.8115 65.3444 67.3234 67.2557 66.4604 68.7502C65.5973 70.2448 63.6861 70.7568 62.1915 69.8937L48.6623 62.0812C47.1677 61.2182 46.6557 59.3069 47.5188 57.8123Z" fill="#FD5000" fill-rule="evenodd"/>
<path clip-rule="evenodd" d="M71.875 78.125C73.6009 78.125 75 79.5241 75 81.25V96.875C75 98.6009 73.6009 100 71.875 100C70.1491 100 68.75 98.6009 68.75 96.875V81.25C68.75 79.5241 70.1491 78.125 71.875 78.125Z" fill="#FD5000" fill-rule="evenodd"/>
<path clip-rule="evenodd" d="M77.2896 74.9998C78.1527 73.5052 80.0639 72.9933 81.5585 73.8563L95.0877 81.6688C96.5823 82.5319 97.0943 84.4432 96.2312 85.9377C95.3681 87.4323 93.4569 87.9443 91.9623 87.0812L78.4331 79.2687C76.9385 78.4057 76.4266 76.4944 77.2896 74.9998Z" fill="#FD5000" fill-rule="evenodd"/>
<path clip-rule="evenodd" d="M66.4604 74.9998C67.3234 76.4944 66.8115 78.4057 65.3169 79.2687L51.7877 87.0812C50.2931 87.9443 48.3819 87.4323 47.5188 85.9377C46.6557 84.4432 47.1677 82.5319 48.6623 81.6688L62.1915 73.8563C63.6861 72.9933 65.5973 73.5052 66.4604 74.9998Z" fill="#FD5000" fill-rule="evenodd"/>
<path clip-rule="evenodd" d="M9.82083 0H90.1555C95.5855 0.0167484 99.9833 4.4145 100 9.84454L100 9.85417L100 43.75C100 45.4759 98.6009 46.875 96.875 46.875C95.1491 46.875 93.75 45.4759 93.75 43.75V9.85946C93.7415 7.86952 92.1303 6.25834 90.1403 6.25H9.82643C7.85474 6.2583 6.2583 7.85474 6.25 9.82643V77.6403C6.25834 79.6303 7.86952 81.2415 9.85946 81.25H34.375C36.1009 81.25 37.5 82.6491 37.5 84.375C37.5 86.1009 36.1009 87.5 34.375 87.5H9.85417L9.84454 87.5C4.4145 87.4833 0.0167484 83.0855 1.49012e-05 77.6555L0 77.6458V9.81115C0.0167596 4.39957 4.39957 0.0167745 9.81115 1.49012e-05L9.82083 0Z" fill="#FD5000" fill-rule="evenodd"/>
<path clip-rule="evenodd" d="M0 21.875C0 20.1491 1.39911 18.75 3.125 18.75H96.875C98.6009 18.75 100 20.1491 100 21.875C100 23.6009 98.6009 25 96.875 25H3.125C1.39911 25 0 23.6009 0 21.875Z" fill="#FD5000" fill-rule="evenodd"/>
</svg>